<?xml version="1.0" standalone="no"?>
<!DOCTYPE svg PUBLIC "-//W3C//DTD SVG 1.1//EN" "http://www.w3.org/Graphics/SVG/1.1/DTD/svg11.dtd" >
<svg xmlns="http://www.w3.org/2000/svg">
<metadata></metadata>
<defs>
<font id="intel_clearlight_italic" horiz-adv-x="1216" >
<font-face units-per-em="2048" ascent="1579" descent="-469" />
<missing-glyph horiz-adv-x="499" />
<glyph unicode="&#xd;" horiz-adv-x="499" />
<glyph horiz-adv-x="0" />
<glyph horiz-adv-x="0" />
<glyph unicode=" "  horiz-adv-x="499" />
<glyph unicode="&#x09;" horiz-adv-x="499" />
<glyph unicode="&#xa0;" horiz-adv-x="499" />
<glyph unicode="!" horiz-adv-x="485" d="M74 0l32 186h158l-33 -186h-157zM170 403l166 1010h129l-191 -1010h-104z" />
<glyph unicode="&#x22;" horiz-adv-x="598" d="M205 956l63 457h125l-94 -457h-94zM457 956l63 457h125l-94 -457h-94z" />
<glyph unicode="#" d="M49 385l17 92h227l131 432h-231l16 92h244l118 385h107l-119 -385h350l121 385h107l-119 -385h213l-17 -92h-225l-133 -432h229l-16 -92h-242l-118 -385h-107l119 385h-352l-117 -385h-107l117 385h-213zM397 477h353l133 432h-353z" />
<glyph unicode="$" d="M84 158l66 82q145 -125 335 -144l103 584l-94 35q-49 18 -94.5 48t-79 69.5t-53 88t-19.5 103.5q0 94 38 166t102.5 121t149.5 74.5t179 27.5l37 207h104l-37 -211q182 -18 328 -121l-55 -84q-72 45 -141.5 68.5t-149.5 32.5l-96 -553l100 -39q49 -18 95 -48t81 -69 t55.5 -88t20.5 -107q0 -102 -39 -179t-105.5 -129t-154.5 -79.5t-189 -29.5l-39 -217h-104l39 223q-104 12 -200.5 54t-182.5 114zM369 1034q0 -78 47 -133t127 -86l65 -24l90 516q-68 -4 -127 -20.5t-104 -50.5t-71.5 -84t-26.5 -118zM590 92q72 2 135 21.5t109.5 55.5 t73 89t26.5 125q0 86 -46 143.5t-132 89.5l-70 27z" />
<glyph unicode="%" horiz-adv-x="1855" d="M184 897q0 88 22.5 179t67.5 164.5t115 120t166 46.5q70 0 122 -24t87 -66t52 -99t17 -127q0 -88 -22.5 -179t-67.5 -165t-115.5 -120t-164.5 -46q-139 0 -209 88t-70 228zM295 895q0 -104 43 -161t131 -57q70 0 118 40t78.5 100.5t44 134.5t13.5 141q0 104 -43 160.5 t-131 56.5q-70 0 -118 -40t-79 -100t-44 -134t-13 -141zM437 0l913 1386h129l-913 -1386h-129zM1083 295q0 88 22.5 179t67.5 164.5t115 120t166 46.5q70 0 122 -24t87 -66t52 -99t17 -127q0 -88 -22.5 -179t-67.5 -165t-115.5 -120t-164.5 -46q-139 0 -209 88t-70 228z M1194 293q0 -104 43 -161t131 -57q70 0 118 40t78.5 100.5t44 134.5t13.5 141q0 104 -43 160.5t-131 56.5q-70 0 -118 -40t-79 -100t-44 -134t-13 -141z" />
<glyph unicode="&#x26;" horiz-adv-x="1286" d="M68 317q0 90 30.5 161t84 127.5t127 100.5t157.5 80l-29 41q-43 59 -77.5 130t-34.5 149q0 76 27.5 137.5t75.5 105.5t113.5 67.5t143.5 23.5q63 0 119.5 -17.5t99.5 -51.5t67.5 -84t24.5 -113q0 -80 -31.5 -143.5t-83 -116t-118 -92.5t-135.5 -70l301 -424 q59 80 107 172t83 188l99 -41q-41 -111 -97.5 -215t-128.5 -192l170 -240h-137l-111 156q-88 -84 -196.5 -133.5t-239.5 -49.5q-86 0 -160.5 21.5t-130 64.5t-88 107.5t-32.5 150.5zM190 328q0 -66 23 -113t63.5 -78t96 -45t121.5 -14q109 0 197.5 44t162.5 118l-332 469 q-68 -29 -128 -65t-105 -81t-72 -103t-27 -132zM444 1110q0 -76 40 -146.5t87 -132.5q59 27 114.5 57t98.5 69.5t69 90.5t26 121q0 82 -53.5 126t-143.5 44q-109 0 -173.5 -61t-64.5 -168z" />
<glyph unicode="'" horiz-adv-x="346" d="M205 956l63 457h125l-94 -457h-94z" />
<glyph unicode="(" horiz-adv-x="532" d="M104 268q0 166 30 332t85 323.5t136 303t184 268.5h120q-211 -281 -319.5 -585t-108.5 -648q0 -150 25 -295t78 -303h-109q-63 145 -92 296t-29 308z" />
<glyph unicode=")" horiz-adv-x="532" d="M-104 -336q211 281 319.5 585t108.5 648q0 150 -25 295t-78 303h109q63 -145 92 -295.5t29 -308.5q0 -166 -30 -332t-85 -323.5t-136 -303t-184 -268.5h-120z" />
<glyph unicode="*" horiz-adv-x="780" d="M188 1137l43 104l230 -121l35 293h114l-71 -291l237 105l33 -103l-256 -77l149 -240l-98 -53l-121 245l-202 -241l-82 69l223 226z" />
<glyph unicode="+" d="M193 635l18 102h381l72 410h112l-71 -410h380l-18 -102h-381l-72 -410h-112l71 410h-380z" />
<glyph unicode="," horiz-adv-x="403" d="M-31 -283q53 68 84 136.5t45 146.5h-65l33 186h157l-22 -129q-16 -98 -56.5 -202.5t-103.5 -182.5z" />
<glyph unicode="-" horiz-adv-x="780" d="M98 487l19 107h575l-18 -107h-576z" />
<glyph unicode="." horiz-adv-x="403" d="M33 0l33 186h157l-33 -186h-157z" />
<glyph unicode="/" horiz-adv-x="720" d="M-121 -336l864 1831h121l-862 -1831h-123z" />
<glyph unicode="0" d="M127 496q0 102 15.5 210.5t47 211t80.5 192.5t116 157.5t152 106.5t189 39q113 0 193.5 -40t132 -109.5t76 -166t24.5 -206.5q0 -104 -15.5 -212t-47 -210t-80.5 -192.5t-116 -158t-152 -106.5t-189 -39q-113 0 -193.5 40t-132 110t-76 166t-24.5 207zM252 489 q0 -84 16.5 -156.5t53 -127.5t95 -87t142.5 -32t152.5 37t121 99.5t89 144.5t60.5 172t35 183t11 175q0 84 -16.5 157.5t-53 128t-95 86t-142.5 31.5t-151.5 -36.5t-120 -98t-89 -143.5t-61.5 -172t-36 -182.5t-11 -178.5z" />
<glyph unicode="1" d="M309 1147l520 239h105l-244 -1386h-121l219 1249l-432 -198z" />
<glyph unicode="2" d="M98 0l15 84q14 80 37.5 145.5t61.5 119.5t90 100.5t122 89.5l293 180q55 35 102 69.5t81 75.5t53.5 91.5t19.5 113.5q0 117 -69.5 174t-198.5 57q-98 0 -184.5 -31.5t-170.5 -88.5l-57 88q88 66 200.5 105.5t223.5 39.5q82 0 151.5 -21.5t120.5 -62.5t81 -102.5 t30 -143.5q0 -80 -23.5 -143t-65.5 -116.5t-100.5 -99.5t-130.5 -89l-297 -182q-55 -35 -95 -70t-69.5 -75t-49 -88t-31.5 -107h684l-21 -113h-803z" />
<glyph unicode="3" d="M96 127l64 88q78 -68 174 -98.5t194 -30.5q160 0 251 86t91 246q0 57 -23.5 102t-63.5 76t-93 46t-112 15h-185l19 105h184q160 0 247 79t87 228q0 59 -21.5 103.5t-60.5 73t-90 41.5t-109 13q-90 0 -175 -28.5t-167 -81.5l-55 88q90 61 194.5 98t212.5 37 q82 0 154 -20.5t125 -61.5t84 -103.5t31 -146.5q0 -147 -74 -247.5t-195 -128.5q211 -70 211 -289q0 -100 -34.5 -182t-98 -139.5t-149.5 -89.5t-189 -32q-117 0 -233.5 40t-194.5 114z" />
<glyph unicode="4" d="M84 332l18 100l830 954h127l-168 -948h207l-21 -106h-205l-57 -332h-121l58 332h-668zM242 438h528l135 762z" />
<glyph unicode="5" d="M109 133l67 86q63 -63 150.5 -98t181.5 -35q92 0 163.5 30.5t120 84t74 127t25.5 157.5q0 133 -77 202t-214 69q-90 0 -152.5 -27t-128.5 -78l-75 45l180 690h678l-19 -108h-577l-129 -492q55 41 125.5 61.5t134.5 20.5q88 0 158.5 -26.5t120 -75.5t75 -117.5 t25.5 -150.5q0 -115 -37 -211.5t-104.5 -166t-161.5 -108.5t-211 -39t-218.5 42t-174.5 118z" />
<glyph unicode="6" d="M164 479q0 176 41 344t125 299t213 211t305 80q92 0 177 -24.5t151 -77.5l-60 -88q-66 43 -133.5 60t-146.5 17q-125 0 -217.5 -50t-158 -134t-106.5 -195.5t-59 -234.5q59 104 163.5 160.5t233.5 56.5q88 0 161 -26.5t125 -75.5t82 -120t30 -157q0 -109 -34 -208 t-97.5 -176t-153.5 -122t-203 -45t-194.5 37t-136 103.5t-81 160t-26.5 205.5zM285 408q0 -72 22.5 -131.5t64.5 -102.5t101 -66.5t133 -23.5q86 0 152.5 35t113 94t70 138t23.5 165q0 129 -78 203t-219 74q-84 0 -155 -30t-121 -82t-78.5 -122t-28.5 -151z" />
<glyph unicode="7" d="M268 0l774 1278h-770l19 108h901l-16 -96l-779 -1290h-129z" />
<glyph unicode="8" d="M123 342q0 158 89 262.5t237 128.5q-76 35 -120 106.5t-44 168.5q0 90 33.5 164.5t92 128t137.5 83t169 29.5q82 0 152.5 -23.5t122.5 -67.5t82 -106.5t30 -140.5q0 -68 -20.5 -128t-57.5 -109.5t-87 -84t-110 -48.5q98 -35 158 -109.5t60 -187.5q0 -102 -37 -183.5 t-101.5 -136.5t-151.5 -85t-190 -30q-90 0 -171 23.5t-141 70t-96 116t-36 159.5zM248 344q0 -68 25.5 -116t70.5 -79.5t104.5 -47t124.5 -15.5q160 0 254.5 82t94.5 235q0 68 -26 117t-71 81t-103 46.5t-126 14.5q-160 0 -254 -84t-94 -234zM408 1004q0 -61 21.5 -104.5 t57 -72t83.5 -42t104 -13.5q141 0 224 80t83 215q0 113 -75 174.5t-193 61.5q-141 0 -223 -82t-82 -217z" />
<glyph unicode="9" d="M115 94l59 86q61 -47 141 -71.5t164 -24.5q115 0 199 50t143.5 135t96 193.5t59.5 225.5l4 23q-55 -111 -158.5 -177.5t-238.5 -66.5q-86 0 -156 29.5t-119 82t-75.5 123t-26.5 154.5q0 111 34.5 211t98 177t155 123t203.5 46q104 0 182 -37t128.5 -103.5t75 -156.5 t24.5 -194q0 -113 -15.5 -227.5t-49 -220t-85 -197t-123 -159t-162.5 -106.5t-206 -39q-90 0 -188.5 33t-163.5 88zM332 860q0 -127 73.5 -203.5t198.5 -76.5q82 0 151.5 32.5t121 88t81 131t29.5 161.5q0 68 -19.5 124.5t-57.5 97t-93 63t-125 22.5q-88 0 -154.5 -35.5 t-112.5 -97t-69.5 -141.5t-23.5 -166z" />
<glyph unicode=":" horiz-adv-x="403" d="M33 0l33 186h157l-33 -186h-157zM178 831l33 186h157l-33 -186h-157z" />
<glyph unicode=";" horiz-adv-x="403" d="M-31 -283q53 68 84 136.5t45 146.5h-65l33 186h157l-22 -129q-16 -98 -56.5 -202.5t-103.5 -182.5zM178 831l33 186h157l-33 -186h-157z" />
<glyph unicode="&#x3c;" d="M207 633l18 102l914 398l-21 -123l-784 -330l667 -326l-20 -116z" />
<glyph unicode="=" d="M184 406l19 102h811l-19 -102h-811zM264 860l19 103h811l-19 -103h-811z" />
<glyph unicode="&#x3e;" d="M139 238l21 122l784 328l-668 328l21 117l774 -396l-18 -102z" />
<glyph unicode="?" horiz-adv-x="952" d="M170 1292q88 72 197.5 110t228.5 38q74 0 141.5 -18.5t117.5 -54.5t81 -91t31 -129q0 -82 -23.5 -141.5t-65.5 -107.5t-99.5 -91t-125.5 -88q-43 -29 -71.5 -57.5t-49 -62.5t-33 -78t-24.5 -101l-12 -64h-105q4 150 57.5 259.5t174.5 187.5q51 33 97 66.5t81 71.5 t55.5 85t20.5 107q0 53 -20.5 90t-55.5 60.5t-84 34.5t-104 11q-106 0 -187.5 -29.5t-169.5 -93.5zM285 0l32 186h158l-33 -186h-157z" />
<glyph unicode="@" horiz-adv-x="1929" d="M96 330q0 221 68.5 416.5t194.5 340t305.5 228.5t402.5 84q170 0 312.5 -49.5t243.5 -141.5t157.5 -225t56.5 -301q0 -109 -26.5 -225.5t-80 -213t-136.5 -157.5t-193 -61q-92 0 -149.5 50t-57.5 134q-53 -86 -140 -135t-180 -49q-78 0 -138 25.5t-103 71.5t-65.5 111.5 t-22.5 143.5q0 109 28.5 209t85 178t139.5 125t191 47q117 0 190.5 -49t102.5 -137l18 106q8 55 58 55h59l-108 -614q-2 -10 -4 -25.5t-2 -27.5q0 -53 28.5 -83t81.5 -30q82 0 140.5 55.5t95.5 137.5t54 178t17 178q0 150 -48 264.5t-135 191t-210 116.5t-272 40 q-197 0 -353.5 -74.5t-265 -203.5t-166 -303t-57.5 -373q0 -160 48 -283t139.5 -208t219.5 -128t287 -43q125 0 241 26t218 83l47 -88q-117 -68 -252 -97.5t-276 -29.5q-176 0 -321.5 52t-249 150.5t-161 240t-57.5 317.5zM662 385q0 -123 60 -190.5t177 -67.5 q80 0 143.5 40t106.5 103.5t66.5 143.5t23.5 159q0 123 -59.5 192t-180.5 69q-86 0 -150.5 -37t-105.5 -99.5t-61 -143.5t-20 -169z" />
<glyph unicode="A" horiz-adv-x="1267" d="M-57 0l782 1413h131l289 -1413h-129l-84 420h-625l-231 -420h-133zM365 528h548l-147 734z" />
<glyph unicode="B" horiz-adv-x="1222" d="M98 0l248 1413h381q88 0 165 -19.5t133 -59.5t89 -101.5t33 -145.5q0 -133 -70.5 -228t-204.5 -142q232 -70 232 -283q0 -115 -44 -196.5t-119 -134t-176 -78t-216 -25.5h-451zM238 109h301q92 0 172 16t139 53t93 98.5t34 151.5q0 59 -23.5 103t-63.5 72t-93.5 41 t-114.5 13h-348zM354 766h283q82 0 152.5 18.5t123 57.5t81 98t28.5 141q0 61 -23.5 104.5t-65.5 70t-99.5 38t-122.5 11.5h-262z" />
<glyph unicode="C" horiz-adv-x="1280" d="M152 580q0 176 49 332.5t144 275.5t234.5 187.5t319.5 68.5q100 0 195.5 -27.5t171.5 -93.5l-68 -88q-63 51 -141 73.5t-170 22.5q-152 0 -265.5 -61.5t-188.5 -165t-112.5 -240.5t-37.5 -289q0 -111 26.5 -201.5t81.5 -155t140 -100.5t202 -36q88 0 178 28.5t164 79.5 l60 -88q-86 -63 -191.5 -98t-222.5 -35q-139 0 -245.5 43t-178.5 123t-108.5 192.5t-36.5 252.5z" />
<glyph unicode="D" horiz-adv-x="1378" d="M98 0l248 1413h383q131 0 236.5 -41t179.5 -115.5t112.5 -180t38.5 -234.5q0 -195 -49 -351.5t-147.5 -265t-245.5 -167t-342 -58.5h-414zM242 109h272q172 0 296 50t203 145t115.5 231.5t36.5 306.5q0 104 -29.5 190t-86 146.5t-138.5 93.5t-186 33h-274z" />
<glyph unicode="E" horiz-adv-x="1132" d="M98 0l248 1413h830l-19 -108h-704l-95 -529h609l-19 -108h-608l-98 -559h725l-19 -109h-850z" />
<glyph unicode="F" horiz-adv-x="1064" d="M98 0l248 1413h795l-19 -108h-669l-99 -560h570l-19 -108h-569l-113 -637h-125z" />
<glyph unicode="G" horiz-adv-x="1353" d="M152 575q0 182 51 341t150.5 276t242.5 184.5t328 67.5q100 0 201.5 -27.5t181.5 -93.5l-68 -88q-70 51 -151.5 73.5t-169.5 22.5q-160 0 -279 -59.5t-198 -161.5t-118.5 -240.5t-39.5 -298.5q0 -240 121.5 -364.5t359.5 -124.5q66 0 131.5 10t124.5 35l84 473h-352 l20 105h467l-115 -656q-78 -39 -175 -59.5t-191 -20.5q-295 0 -450.5 161t-155.5 445z" />
<glyph unicode="H" horiz-adv-x="1386" d="M98 0l248 1413h125l-115 -647h760l115 647h125l-248 -1413h-125l115 657h-760l-115 -657h-125z" />
<glyph unicode="I" horiz-adv-x="501" d="M98 0l248 1413h125l-248 -1413h-125z" />
<glyph unicode="J" horiz-adv-x="974" d="M-29 98l66 84q59 -53 131 -77.5t156 -24.5q78 0 134 24.5t95 70.5t63.5 109.5t38.5 141.5l172 987h125l-174 -995q-18 -102 -53 -184t-91 -141.5t-135 -91.5t-182 -32q-98 0 -187 31t-159 98z" />
<glyph unicode="K" horiz-adv-x="1222" d="M98 0l248 1413h125l-111 -627h86q49 0 78 16.5t64 51.5l559 559h158l-682 -678l489 -735h-151l-388 594q-31 47 -59.5 66.5t-79.5 19.5h-92l-119 -680h-125z" />
<glyph unicode="L" horiz-adv-x="1042" d="M98 0l248 1413h125l-229 -1304h680l-19 -109h-805z" />
<glyph unicode="M" horiz-adv-x="1636" d="M98 0l248 1413h133l334 -915l664 915h129l-248 -1413h-125l207 1184l-586 -809h-113l-305 835l-213 -1210h-125z" />
<glyph unicode="N" horiz-adv-x="1386" d="M98 0l248 1413h135l535 -1229l215 1229h125l-248 -1413h-135l-535 1227l-215 -1227h-125z" />
<glyph unicode="O" horiz-adv-x="1513" d="M152 573q0 170 48 328t139 278.5t223 192.5t302 72q135 0 240.5 -43t178.5 -123t111 -191.5t38 -246.5q0 -170 -47.5 -327t-138.5 -277.5t-224 -193.5t-303 -73q-135 0 -240.5 43t-178.5 123t-110.5 191.5t-37.5 246.5zM283 569q0 -225 113.5 -356t336.5 -131 q143 0 250 65.5t177.5 173t105 244.5t34.5 279q0 223 -114.5 355t-335.5 132q-141 0 -247.5 -65.5t-177.5 -172t-106.5 -243.5t-35.5 -281z" />
<glyph unicode="P" horiz-adv-x="1218" d="M98 0l248 1413h428q88 0 165 -24.5t133 -71.5t88 -115.5t32 -159.5q0 -119 -40 -210t-111.5 -153.5t-171 -95t-218.5 -32.5h-336l-96 -551h-121zM334 659h313q197 0 308.5 95.5t111.5 281.5q0 131 -85 200t-220 69h-313z" />
<glyph unicode="Q" horiz-adv-x="1513" d="M152 573q0 168 47 326t138 278.5t224 193.5t303 73q135 0 240.5 -43t178.5 -123t111 -191.5t38 -246.5t-31 -265.5t-92.5 -241t-152.5 -195.5t-212 -128l375 -145l-51 -105l-449 187q-29 12 -50 17t-50 5q-135 0 -240.5 43t-178.5 123t-110.5 191.5t-37.5 246.5zM283 569 q0 -223 114.5 -355t335.5 -132q143 0 250 65.5t177.5 173t105 244.5t34.5 279q0 223 -114.5 355t-335.5 132q-143 0 -249.5 -65.5t-177.5 -173t-105.5 -244.5t-34.5 -279z" />
<glyph unicode="R" horiz-adv-x="1202" d="M98 0l248 1413h399q86 0 162 -22.5t132.5 -66.5t90 -108.5t33.5 -150.5q0 -98 -31.5 -176t-88 -135.5t-135.5 -93t-171 -46.5l338 -614h-141l-279 524q-23 45 -45 61.5t-73 16.5h-211l-107 -602h-121zM344 711h277q92 0 168.5 20.5t132 63.5t86 108.5t30.5 155.5 q0 63 -24.5 109t-65.5 77t-96 45.5t-119 14.5h-284z" />
<glyph unicode="S" horiz-adv-x="1177" d="M61 143l70 88q90 -78 190.5 -113.5t223.5 -35.5q76 0 142.5 18.5t115.5 56.5t76.5 94t27.5 130q0 90 -47 149.5t-133 92.5l-262 102q-106 41 -174 123t-68 194q0 100 39 175t106.5 125.5t156.5 76t190 25.5q121 0 223 -30t192 -95l-57 -88q-88 59 -174 80.5t-190 21.5 q-74 0 -138.5 -16.5t-113.5 -50t-78 -86t-29 -125.5q0 -84 49.5 -138.5t126.5 -85.5l260 -102q111 -43 180.5 -127t69.5 -201q0 -102 -37.5 -183t-104.5 -136t-158 -84t-197 -29q-137 0 -254 41t-224 133z" />
<glyph unicode="T" horiz-adv-x="1191" d="M188 1305l19 108h1093l-18 -108h-483l-230 -1305h-125l230 1305h-486z" />
<glyph unicode="U" horiz-adv-x="1388" d="M178 428q0 82 19 180l141 805h125l-146 -833q-6 -37 -10 -74t-4 -70q0 -178 84 -266t262 -88q111 0 186.5 38t128 104.5t83 157.5t49.5 198l145 833h125l-158 -895q-23 -123 -65.5 -223t-111 -173t-165 -113t-223.5 -40q-223 0 -344 118t-121 341z" />
<glyph unicode="V" horiz-adv-x="1265" d="M190 1413h129l244 -1280l690 1280h138l-779 -1413h-139z" />
<glyph unicode="W" horiz-adv-x="1869" d="M203 1413h129l143 -1268l524 1162h148l115 -1164l585 1270h135l-673 -1413h-142l-120 1149l-527 -1149h-139z" />
<glyph unicode="X" horiz-adv-x="1243" d="M-53 0l641 737l-357 676h140l301 -588l502 588h151l-600 -686l391 -727h-139l-336 633l-541 -633h-153z" />
<glyph unicode="Y" horiz-adv-x="1189" d="M199 1413h125l294 -776l551 776h138l-643 -887l-93 -526h-125l93 528z" />
<glyph unicode="Z" horiz-adv-x="1161" d="M-8 0l18 106l1069 1199h-803l19 108h950l-18 -106l-1067 -1194h850l-21 -113h-997z" />
<glyph unicode="[" horiz-adv-x="651" d="M31 -336l323 1831h434l-18 -102h-315l-287 -1626h315l-18 -103h-434z" />
<glyph unicode="\" horiz-adv-x="720" d="M201 1495h108l234 -1831h-111z" />
<glyph unicode="]" horiz-adv-x="651" d="M-113 -336l19 103h315l287 1626h-315l18 102h434l-323 -1831h-435z" />
<glyph unicode="^" d="M172 639l541 762h102l275 -762h-119l-223 645l-451 -645h-125z" />
<glyph unicode="_" horiz-adv-x="1024" d="M-166 -430l19 102h1024l-19 -102h-1024z" />
<glyph unicode="`" horiz-adv-x="1024" d="M516 1516h139l152 -312h-107z" />
<glyph unicode="a" horiz-adv-x="1187" d="M98 387q0 123 33 242t98.5 211t162.5 148t224 56q133 0 220.5 -55t121.5 -162l25 136q4 29 17.5 42t41.5 13h68l-180 -1018h-62q-31 0 -40 15.5t-5 43.5l21 121q-59 -96 -157.5 -151.5t-215.5 -55.5q-90 0 -159.5 31t-117 86t-72 131t-24.5 166zM221 393 q0 -141 68.5 -227t216.5 -86q98 0 174 48t128 126t79.5 175t27.5 196q0 147 -70.5 230t-217.5 83q-104 0 -180 -46t-126.5 -123t-75 -175t-24.5 -201z" />
<glyph unicode="b" horiz-adv-x="1191" d="M78 0l260 1468h119l-111 -626q59 94 157.5 148t213.5 54q90 0 159.5 -30.5t117.5 -86t73 -131t25 -165.5q0 -127 -34 -245t-99.5 -210t-163 -147.5t-224.5 -55.5q-135 0 -221 56.5t-123 156.5l-22 -131q-8 -55 -66 -55h-61zM272 393q0 -147 72 -230t217 -83q104 0 180 46 t127.5 123t76 175t24.5 201q0 143 -71 228t-216 85q-98 0 -174 -48t-128 -126t-80 -175t-28 -196z" />
<glyph unicode="c" horiz-adv-x="966" d="M102 408q0 131 39 246.5t112 202.5t177.5 137t233.5 50q80 0 146.5 -22.5t125.5 -71.5l-57 -82q-47 37 -105.5 53.5t-118.5 16.5q-104 0 -184 -43t-134 -114.5t-83 -166t-29 -198.5q0 -162 85 -249t247 -87q66 0 122 18.5t109 53.5l50 -82q-133 -96 -303 -97 q-203 0 -318 117t-115 318z" />
<glyph unicode="d" horiz-adv-x="1187" d="M98 387q0 125 34 244t99.5 211t161.5 147t223 55q137 0 222.5 -55t119.5 -155l113 634h119l-260 -1468h-62q-31 0 -40 15.5t-5 43.5l23 125q-59 -98 -159.5 -154.5t-215.5 -56.5q-90 0 -159.5 31t-117 86t-72 131t-24.5 166zM221 393q0 -145 70.5 -229t214.5 -84 q98 0 174 48t128 126t79.5 175t27.5 196q0 147 -70.5 230t-217.5 83q-104 0 -180 -46t-126.5 -123t-75 -175t-24.5 -201z" />
<glyph unicode="e" horiz-adv-x="1060" d="M102 416q0 123 35 235.5t101.5 200.5t164 140t222.5 52q86 0 151.5 -26.5t110.5 -73.5t68.5 -112.5t23.5 -145.5q0 -51 -7 -97t-22 -93h-727q-2 -18 -2 -37v-35q0 -164 88 -254t252 -90q145 0 273 86l49 -82q-76 -57 -162 -84t-178 -27q-207 0 -324 119t-117 324z M240 592h612q12 51 12 104q0 115 -64.5 179.5t-181.5 64.5q-76 0 -138 -26.5t-109 -73.5t-81 -110.5t-50 -137.5z" />
<glyph unicode="f" horiz-adv-x="641" d="M127 920l16 98h181l22 129q29 168 115 248t252 80q23 0 46 -3.5t40 -7.5l-17 -94h-49q-68 0 -114 -11t-76.5 -39t-49 -72t-30.5 -111l-21 -119h279l-16 -98h-279l-162 -920h-119l162 920h-180z" />
<glyph unicode="g" horiz-adv-x="1189" d="M63 -338l54 88q82 -53 159.5 -74.5t169.5 -21.5q90 0 155 27.5t108 80t69.5 125t42.5 162.5l25 144q-59 -94 -157.5 -149.5t-215.5 -55.5q-90 0 -159.5 30.5t-116.5 84t-72 128t-25 164.5q0 125 34 242t99.5 208t162 145t222.5 54q135 0 221.5 -56t121.5 -157l24 134 q4 29 17.5 41t41.5 12h68l-170 -961q-20 -117 -57 -211t-96.5 -160.5t-145.5 -101.5t-203 -35q-102 0 -196 27t-181 86zM223 401q0 -147 72 -227t213 -80q98 0 174 47t128 124t80 173.5t28 192.5q0 143 -71 225t-218 82q-104 0 -180 -46t-126.5 -121t-75 -172t-24.5 -198z " />
<glyph unicode="h" horiz-adv-x="1159" d="M78 0l258 1468h119l-111 -630q57 92 149.5 149t211.5 57q150 0 235.5 -82.5t85.5 -230.5q0 -51 -10 -108l-109 -623h-119l107 608q6 37 8 61.5t2 47.5q0 109 -54 165t-167 56q-84 0 -151.5 -38t-117.5 -99.5t-83 -139t-47 -157.5l-88 -504h-119z" />
<glyph unicode="i" horiz-adv-x="454" d="M78 0l180 1018h119l-180 -1018h-119zM291 1260l28 157h140l-29 -157h-139z" />
<glyph unicode="j" horiz-adv-x="454" d="M-186 -436l16 94h35q45 0 76.5 7t51 23.5t32 44t18.5 68.5l215 1217h119l-217 -1229q-23 -129 -86.5 -181t-192.5 -52q-16 0 -34.5 2t-32.5 6zM291 1260l28 157h140l-29 -157h-139z" />
<glyph unicode="k" horiz-adv-x="1034" d="M78 0l260 1468h119l-156 -872q94 4 149.5 32.5t112.5 82.5l328 307h156l-404 -369q-41 -37 -84 -71l369 -578h-137l-330 526q-80 -27 -176 -28l-88 -498h-119z" />
<glyph unicode="l" horiz-adv-x="546" d="M109 168q0 16 2 36.5t6 43.5l215 1220h119l-218 -1230q-6 -35 -6 -62q0 -49 31 -66.5t92 -17.5h33l-16 -96q-23 -6 -54 -6q-100 0 -152 41t-52 137z" />
<glyph unicode="m" horiz-adv-x="1732" d="M78 0l178 1018h59q48 0 48 -41q0 -7 -1 -16l-20 -115q53 86 135 142t189 56q123 0 193.5 -65.5t88.5 -177.5q53 106 147.5 174.5t213.5 68.5q141 0 215.5 -86t74.5 -227q0 -29 -3 -60.5t-7 -58.5l-106 -612h-119l106 610q4 29 7.5 55.5t3.5 53.5q0 102 -49.5 160.5 t-149.5 58.5q-74 0 -134.5 -40t-105.5 -103.5t-73.5 -139t-40.5 -145.5l-88 -510h-119l106 610q10 57 11 109q0 104 -50.5 161.5t-148.5 57.5q-74 0 -133.5 -39t-103.5 -99.5t-73.5 -135t-41.5 -148.5l-90 -516h-119z" />
<glyph unicode="n" horiz-adv-x="1159" d="M78 0l178 1018h59q48 0 48 -41q0 -7 -1 -16l-22 -130q55 92 150.5 152.5t214.5 60.5q150 0 235.5 -82.5t85.5 -230.5q0 -31 -3 -57.5t-7 -50.5l-109 -623h-119l107 608q4 29 7 55.5t3 53.5q0 221 -221 221q-84 0 -151.5 -38t-117.5 -99.5t-83 -139t-47 -157.5l-88 -504 h-119z" />
<glyph unicode="o" horiz-adv-x="1161" d="M102 416q0 123 36 236.5t104.5 200.5t167 139t223.5 52q100 0 179 -31.5t134 -90t84 -140.5t29 -180q0 -123 -36 -236.5t-104.5 -200.5t-167 -139.5t-223.5 -52.5q-100 0 -179 32t-134 90.5t-84 140t-29 180.5zM225 412q0 -74 20.5 -134.5t59.5 -105.5t96.5 -69.5 t130.5 -24.5q100 0 176 45t126.5 118.5t76 169t25.5 195.5q0 74 -20.5 134.5t-59.5 105.5t-96 69.5t-131 24.5q-100 0 -176 -45t-126.5 -119t-76 -169t-25.5 -195z" />
<glyph unicode="p" horiz-adv-x="1193" d="M2 -430l256 1448h59q49 0 49 -43q0 -6 -1 -14l-23 -127q59 98 159.5 154t217.5 56q90 0 159.5 -30.5t117.5 -86t73 -131t25 -165.5q0 -127 -34 -245t-100.5 -210t-164 -147.5t-222.5 -55.5q-137 0 -223 55.5t-121 155.5l-108 -614h-119zM272 393q0 -150 73 -231.5 t218 -81.5q104 0 180 46t127.5 123t76 175t24.5 201q0 145 -72 229t-215 84q-96 0 -173 -48t-130 -126t-81 -175t-28 -196z" />
<glyph unicode="q" horiz-adv-x="1187" d="M98 387q0 127 34 246t99.5 210t161.5 146t223 55q137 0 223.5 -56t121.5 -159l22 129q6 31 19.5 45.5t46.5 14.5h61l-256 -1448h-119l109 608q-59 -96 -159.5 -150.5t-213.5 -54.5q-90 0 -159.5 31t-117 86t-72 131t-24.5 166zM221 393q0 -145 70.5 -229t214.5 -84 q96 0 173 48t129 126t79.5 175t27.5 196q0 147 -70.5 230t-217.5 83q-104 0 -180 -46t-126.5 -123t-75 -175t-24.5 -201z" />
<glyph unicode="r" horiz-adv-x="704" d="M78 0l178 1018h59q48 0 48 -41q0 -7 -1 -16l-24 -136q55 94 144 150.5t206 56.5q20 0 43 -3t39 -7l-16 -94h-68q-92 0 -161.5 -38t-119 -101.5t-81 -146.5t-45.5 -171l-82 -471h-119z" />
<glyph unicode="s" horiz-adv-x="911" d="M39 106l59 84q59 -55 139 -83.5t166 -28.5q117 0 183.5 51t66.5 156q0 53 -34.5 92t-94.5 63l-178 74q-35 14 -68.5 35.5t-60.5 49.5t-42 63.5t-15 78.5q0 78 30.5 135.5t83 94.5t121 55t144.5 18q80 0 160.5 -23.5t146.5 -68.5l-49 -84q-66 41 -130.5 57.5t-136.5 16.5 q-51 0 -97 -10t-81 -32.5t-55.5 -57.5t-20.5 -84q0 -53 34 -89t93 -61l179 -76q88 -37 139 -96t51 -139t-28.5 -140.5t-79 -101.5t-119 -61.5t-148.5 -20.5q-102 0 -194 35t-164 98z" />
<glyph unicode="t" horiz-adv-x="690" d="M125 920l16 98h181l47 264h118l-47 -264h262l-16 -98h-262l-111 -625q-6 -41 -6 -70q0 -43 14.5 -67.5t40 -39t61.5 -18.5t79 -4h53l-16 -94q-18 -4 -40 -6t-42 -2q-63 0 -113.5 10t-84.5 36t-52.5 68t-18.5 105q0 27 3.5 54.5t7.5 56.5l106 596h-180z" />
<glyph unicode="u" horiz-adv-x="1130" d="M133 293q0 29 2 60.5t8 66.5l105 598h119l-103 -592q-12 -72 -12 -119q0 -227 223 -227q82 0 145.5 39t108.5 101.5t73.5 138t41.5 149.5l88 510h119l-179 -1018h-61q-31 0 -40 15.5t-5 43.5l18 111q-53 -86 -138 -141.5t-191 -55.5q-154 0 -238 82t-84 238z" />
<glyph unicode="v" horiz-adv-x="991" d="M117 1018h125l184 -887l494 887h131l-586 -1018h-119z" />
<glyph unicode="w" horiz-adv-x="1456" d="M121 1018h123l104 -889l389 807h133l109 -801l401 883h131l-493 -1018h-123l-113 801l-393 -801h-123z" />
<glyph unicode="x" horiz-adv-x="954" d="M-66 0l476 532l-275 486h131l221 -404l351 404h141l-440 -492l301 -526h-133l-244 440l-387 -440h-142z" />
<glyph unicode="y" horiz-adv-x="991" d="M-37 -436l17 94h53q43 0 72.5 10t52 31.5t43 54.5t45.5 76l100 172l-229 1016h125l184 -887l494 887h131l-680 -1182q-43 -76 -78 -129t-71 -87t-80 -49t-105 -15q-47 0 -74 8z" />
<glyph unicode="z" horiz-adv-x="952" d="M-8 0l18 104l789 814h-629l18 100h764l-18 -105l-778 -811h643l-19 -102h-788z" />
<glyph unicode="{" horiz-adv-x="741" d="M74 532l16 99h66q43 0 71.5 4t48 16.5t30.5 37t20 67.5l73 415q29 156 121 241t246 85q23 0 45.5 -2t38.5 -6l-16 -94h-48q-125 0 -187 -55.5t-85 -182.5l-68 -381q-14 -78 -49 -132t-94 -73q76 -39 76 -151q0 -31 -10 -82l-56 -318q-8 -47 -8 -83q0 -51 16.5 -84 t45 -52.5t70.5 -28t95 -8.5h43l-16 -94q-14 -4 -29.5 -6t-29.5 -2q-147 0 -228.5 65.5t-81.5 206.5q0 23 2.5 48.5t6.5 50.5l61 350q6 31 6 55q0 55 -29.5 74.5t-99.5 19.5h-63z" />
<glyph unicode="|" horiz-adv-x="579" d="M63 -430l338 1925h121l-338 -1925h-121z" />
<glyph unicode="}" horiz-adv-x="741" d="M-84 -330l16 94h48q127 0 188 56.5t84 181.5l67 385q12 74 48 130t98 75q-78 37 -78 151q0 16 3 37t7 45l56 314q4 25 6 44t2 40q0 94 -55.5 133t-172.5 39h-43l17 94q14 4 31.5 6t27.5 2q147 0 228 -65.5t81 -206.5q0 -23 -2 -48.5t-6 -50.5l-61 -346q-6 -35 -6 -55 q0 -57 31.5 -75.5t97.5 -18.5h63l-16 -99h-66q-45 0 -74.5 -4t-48 -18t-30 -39t-17.5 -63l-73 -420q-29 -158 -121 -242t-246 -84q-23 0 -45.5 2t-38.5 6z" />
<glyph unicode="~" d="M123 520l4 25q10 63 29.5 120.5t51.5 99.5t79 66.5t114 24.5q66 0 132.5 -35t140.5 -94q35 -29 61.5 -48.5t50 -31.5t45 -18t46.5 -6q41 0 68.5 15t45 43t27.5 64.5t16 79.5l4 25h117l-4 -25q-10 -66 -29.5 -122t-51.5 -98t-79 -66.5t-114 -24.5q-66 0 -132.5 35 t-140.5 94q-35 29 -61.5 48.5t-50 31.5t-45 18.5t-46.5 6.5q-41 0 -68.5 -15.5t-45 -43t-27.5 -64.5t-16 -80l-4 -25h-117z" />
<glyph unicode="&#xa1;" horiz-adv-x="485" d="M18 -395l191 1009h104l-166 -1009h-129zM219 831l33 187h158l-33 -187h-158z" />
<glyph unicode="&#xa2;" d="M227 475q0 123 35 232.5t101.5 194.5t160.5 139.5t213 66.5l49 278h105l-49 -276q137 -8 241 -92l-57 -82q-45 33 -97 48t-106 20l-149 -857h20q68 0 125.5 18.5t114.5 53.5l49 -82q-137 -96 -311 -96h-19l-47 -274h-104l51 284q-156 33 -241 143.5t-85 280.5zM350 483 q0 -266 221 -321l148 837q-90 -16 -158.5 -63t-115 -116.5t-71 -156t-24.5 -180.5z" />
<glyph unicode="&#xa3;" d="M133 0l19 102q141 80 207.5 186.5t66.5 272.5q0 53 -6 101h-215l18 104h183q-10 43 -16.5 84t-6.5 88q0 221 116.5 348t340.5 127q80 0 163.5 -25.5t141.5 -78.5l-58 -84q-53 41 -119 58t-134 17q-174 0 -251 -94t-77 -274q0 -41 5 -81t13 -85h375l-18 -104h-344 q6 -49 6 -107q0 -141 -56.5 -257t-171.5 -189h654l-19 -109h-817z" />
<glyph unicode="&#xa4;" d="M152 207l145 160q-59 59 -90 142t-31 183q0 98 31 181t90 145l-145 160l81 77l152 -168q53 33 117.5 50.5t136.5 17.5q147 0 256 -68l154 168l81 -77l-147 -162q55 -59 87 -142t32 -182q0 -98 -31 -181t-88 -142l147 -162l-81 -78l-154 168q-109 -68 -256 -68t-254 66 l-152 -166zM291 694q0 -170 90 -265t258 -95t258 95t90 265q0 166 -90 261.5t-258 95.5t-258 -95.5t-90 -261.5z" />
<glyph unicode="&#xa5;" d="M156 258l18 102h346l35 201h-346l18 103h287l-293 722h129l281 -731l532 731h137l-544 -722h284l-18 -103h-342l-35 -201h342l-18 -102h-342l-45 -258h-125l45 258h-346z" />
<glyph unicode="&#xa6;" horiz-adv-x="579" d="M63 -430l142 801h121l-142 -801h-121zM264 715l137 780h121l-137 -780h-121z" />
<glyph unicode="&#xa7;" horiz-adv-x="970" d="M20 -88l60 84q66 -57 147.5 -85t171.5 -28q121 0 190.5 54.5t69.5 152.5q0 57 -38.5 96t-94.5 62l-190 80q-90 37 -150.5 101.5t-60.5 162.5q0 131 78 209t219 92q-86 39 -134 93t-48 136q0 78 29.5 134.5t81.5 92t122 53t150 17.5q88 0 173 -24.5t152 -67.5l-49 -84 q-63 37 -132 55.5t-155 18.5q-53 0 -99 -9.5t-81 -30t-55.5 -56t-20.5 -86.5q0 -59 38 -96.5t95 -61.5l187 -80q104 -45 165.5 -109.5t61.5 -162.5q0 -57 -19.5 -109.5t-54 -94.5t-84 -72t-106.5 -42q63 -37 101 -86t38 -119q0 -78 -28.5 -138t-81 -101t-123 -62.5 t-154.5 -21.5q-102 0 -199.5 34.5t-171.5 98.5zM242 604q0 -68 40 -111.5t101 -70.5l154 -66q109 16 178 82t69 170q0 72 -43 119t-114 78l-43 18q-18 2 -37 3t-35 1q-127 0 -198.5 -55t-71.5 -168z" />
<glyph unicode="&#xa8;" horiz-adv-x="1024" d="M385 1245l27 156h137l-27 -156h-137zM758 1245l26 156h138l-27 -156h-137z" />
<glyph unicode="&#xa9;" horiz-adv-x="1710" d="M154 709q0 162 54 297t151.5 232t232.5 151.5t297 54.5t297 -54.5t232.5 -152.5t151.5 -234.5t54 -297.5q0 -162 -54 -297.5t-151.5 -232.5t-231.5 -151.5t-296 -54.5q-164 0 -299 54.5t-232.5 152.5t-151.5 233.5t-54 299.5zM262 707q0 -141 45 -259t127 -202 t196.5 -131t256.5 -47q141 0 258 46t198.5 131t127 202.5t45.5 259.5q0 141 -45.5 258.5t-127 201.5t-198.5 131.5t-258 47.5t-256 -46.5t-197 -131.5t-127 -202.5t-45 -258.5zM553 711q0 92 27.5 162.5t76 118.5t114 73t140.5 25q70 0 131.5 -18.5t96.5 -47.5l-45 -86 q-29 18 -71 32.5t-101 14.5q-117 0 -182.5 -67.5t-65.5 -204.5q0 -76 19.5 -128.5t53 -84t78.5 -46t95 -14.5q53 0 96 13.5t76 35.5l49 -86q-35 -29 -101.5 -48t-134.5 -19q-66 0 -129 21.5t-112.5 67.5t-80 116.5t-30.5 169.5z" />
<glyph unicode="&#xaa;" horiz-adv-x="862" d="M129 485l16 90h596l-16 -90h-596zM190 985q0 82 21.5 162t63.5 141.5t105.5 99t147.5 37.5q168 0 215 -139l13 74q4 23 14 36t35 13h61l-121 -686h-57q-45 0 -35 55l11 56q-39 -59 -101.5 -93t-134.5 -34q-115 0 -176.5 77.5t-61.5 200.5zM297 995q0 -86 41 -139t131 -53 q57 0 103 29.5t77 77.5t47.5 107.5t16.5 119.5q0 90 -42 141t-130 51q-63 0 -109.5 -28.5t-76 -75.5t-44 -106.5t-14.5 -123.5z" />
<glyph unicode="&#xab;" horiz-adv-x="901" d="M106 539l332 436h119l-328 -447l174 -424h-108zM413 539l332 436h119l-328 -447l174 -424h-108z" />
<glyph unicode="&#xac;" d="M244 811l18 102h836l-82 -462h-109l66 360h-729z" />
<glyph unicode="&#xad;" horiz-adv-x="780" d="M98 487l19 107h575l-18 -107h-576z" />
<glyph unicode="&#xae;" horiz-adv-x="886" d="M219 1147q0 74 24.5 134t68.5 104.5t106.5 69t136.5 24.5t136.5 -24.5t106.5 -69t68.5 -104.5t24.5 -134t-24.5 -134.5t-68.5 -104.5t-106.5 -68.5t-136.5 -24.5t-136.5 24.5t-106.5 68.5t-68.5 104.5t-24.5 134.5zM285 1147q0 -125 73.5 -200t196.5 -75t196.5 75 t73.5 200t-73.5 199.5t-196.5 74.5t-196.5 -74.5t-73.5 -199.5zM434 985v342h117q61 0 97 -25.5t36 -78.5q0 -39 -21.5 -63.5t-54.5 -33.5l103 -141h-70l-78 111q-10 14 -19 19t-30 5h-20v-135h-60zM494 1163h57q41 0 56.5 15.5t15.5 42.5q0 59 -80 59h-49v-117z" />
<glyph unicode="&#xaf;" horiz-adv-x="1024" d="M338 1280l16 96h617l-17 -96h-616z" />
<glyph unicode="&#xb0;" horiz-adv-x="798" d="M223 1126q0 133 80 207t203 74t204 -73.5t81 -207.5q0 -133 -81 -206.5t-204 -73.5t-203 73.5t-80 206.5zM330 1126q0 -92 48 -141t126 -49q84 0 132 49t48 141t-48 141.5t-132 49.5q-78 0 -126 -49t-48 -142z" />
<glyph unicode="&#xb1;" d="M97 92l18 102h874l-18 -102h-874zM216 770l18 102h381l72 410h112l-71 -410h380l-18 -102h-381l-72 -410h-112l71 410h-380z" />
<glyph unicode="&#xb2;" horiz-adv-x="851" d="M213 762l8 51q16 96 65.5 155.5t131.5 108.5l164 100q61 37 96 77t35 104q0 59 -40 86.5t-114 27.5q-51 0 -99 -17t-91 -46l-43 76q53 37 118.5 59.5t131.5 22.5q111 0 180 -51.5t69 -145.5q0 -47 -14 -85t-39.5 -68.5t-60.5 -57.5t-76 -51l-174 -107q-55 -35 -86 -64.5 t-43 -80.5h395l-16 -94h-498z" />
<glyph unicode="&#xb3;" horiz-adv-x="851" d="M217 817l53 78q78 -57 195 -58q90 0 137 44.5t47 119.5q0 53 -44 83t-107 30h-119l16 88h117q82 0 127 39t45 117q0 55 -42 83.5t-107 28.5q-94 0 -187 -51l-43 78q53 33 114.5 51.5t125.5 18.5q111 0 179.5 -51.5t68.5 -145.5q0 -78 -41 -134.5t-107 -78.5 q115 -45 115 -158q0 -61 -23.5 -109t-64.5 -81t-96.5 -50.5t-116.5 -17.5q-66 0 -131.5 19.5t-110.5 56.5z" />
<glyph unicode="&#xb4;" horiz-adv-x="1024" d="M459 1204l248 312h153l-280 -312h-121z" />
<glyph unicode="&#xb5;" d="M37 -430l254 1448h119l-103 -592q-12 -72 -12 -119q0 -111 56.5 -169t166.5 -58q80 0 142.5 33.5t106.5 90t72.5 129.5t43.5 152l92 533h119l-146 -830q-2 -12 -3 -21t-1 -15q0 -35 15.5 -47.5t58.5 -12.5h26l-16 -86q-10 -4 -27.5 -7t-31.5 -3q-142 0 -142 131v9t2 22 q-55 -82 -141 -133.5t-190 -51.5q-92 0 -158 36t-90 104l-94 -543h-119z" />
<glyph unicode="&#xb6;" horiz-adv-x="1243" d="M182 981q0 213 130 322.5t352 109.5h548l-301 -1700h-125l283 1604h-283l-282 -1604h-125l162 910q-162 8 -260.5 103t-98.5 255z" />
<glyph unicode="&#xb7;" horiz-adv-x="403" d="M111 446l33 186h157l-33 -186h-157z" />
<glyph unicode="&#xb8;" horiz-adv-x="1024" d="M168 -420l35 80q27 -10 52.5 -15t59.5 -5q63 0 98.5 22.5t35.5 71.5q0 41 -35 57t-95 16h-53l96 222l91 -29l-56 -121q162 -18 162 -139q0 -88 -66.5 -139.5t-173.5 -51.5q-43 0 -77.5 7.5t-73.5 23.5z" />
<glyph unicode="&#xb9;" horiz-adv-x="851" d="M326 1405l291 141h100l-137 -784h-105l119 676l-229 -113z" />
<glyph unicode="&#xba;" horiz-adv-x="833" d="M129 485l16 90h609l-17 -90h-608zM195 1014q0 76 23.5 149.5t67.5 132t110.5 94t152.5 35.5q141 0 213 -85t72 -222q0 -72 -23 -145.5t-67 -133t-110.5 -96t-154.5 -36.5q-141 0 -212.5 85t-71.5 222zM301 1010q0 -88 45 -147.5t137 -59.5q63 0 109.5 28.5t76 74.5 t44 102.5t14.5 113.5q0 88 -45 147.5t-137 59.5q-61 0 -107.5 -27.5t-76 -73.5t-45 -103.5t-15.5 -114.5z" />
<glyph unicode="&#xbb;" horiz-adv-x="901" d="M47 104l328 445l-174 426h108l189 -436l-332 -435h-119zM354 104l328 445l-174 426h108l189 -436l-332 -435h-119z" />
<glyph unicode="&#xbc;" horiz-adv-x="1855" d="M297 1245l291 141h100l-137 -784h-105l119 676l-229 -113zM451 0l913 1386h129l-913 -1386h-129zM1065 161l12 70l479 553h105l-95 -539h125l-14 -84h-125l-29 -161h-102l29 161h-385zM1198 245h266l68 381z" />
<glyph unicode="&#xbd;" horiz-adv-x="1855" d="M297 1245l291 141h100l-137 -784h-105l119 676l-229 -113zM431 0l913 1386h129l-913 -1386h-129zM1083 0l8 51q16 96 65.5 155.5t131.5 108.5l164 100q61 37 96 77t35 104q0 59 -40 86.5t-114 27.5q-51 0 -99 -17t-91 -46l-43 76q53 37 118.5 59.5t131.5 22.5 q111 0 180 -51.5t69 -145.5q0 -47 -14 -85t-39.5 -68.5t-60.5 -57.5t-76 -51l-174 -107q-55 -35 -86 -64.5t-43 -80.5h395l-16 -94h-498z" />
<glyph unicode="&#xbe;" horiz-adv-x="1855" d="M188 657l53 78q78 -57 195 -58q90 0 137 44.5t47 119.5q0 53 -44 83t-107 30h-119l16 88h117q82 0 127 39t45 117q0 55 -42 83.5t-107 28.5q-94 0 -187 -51l-43 78q53 33 114.5 51.5t125.5 18.5q111 0 179.5 -51.5t68.5 -145.5q0 -78 -41 -134.5t-107 -78.5 q115 -45 115 -158q0 -61 -23.5 -109t-64.5 -81t-96.5 -50.5t-116.5 -17.5q-66 0 -131.5 19.5t-110.5 56.5zM459 0l913 1386h129l-913 -1386h-129zM1065 161l12 70l479 553h105l-95 -539h125l-14 -84h-125l-29 -161h-102l29 161h-385zM1198 245h266l68 381z" />
<glyph unicode="&#xbf;" horiz-adv-x="952" d="M-14 -129q0 82 23.5 141.5t65.5 107.5t99 90t125 89q43 29 71.5 57.5t49 62.5t33 77t24.5 102l12 64h105q-4 -150 -57.5 -259.5t-174.5 -187.5q-51 -33 -97 -66.5t-80.5 -71.5t-55 -85t-20.5 -107q0 -53 20.5 -90t55 -60.5t83.5 -34.5t105 -11q106 0 187 29.5t169 93.5 l53 -86q-88 -72 -197.5 -110t-228.5 -38q-74 0 -141.5 18.5t-117.5 54.5t-80.5 91t-30.5 129zM477 831l33 187h158l-33 -187h-158z" />
<glyph unicode="&#xc0;" horiz-adv-x="1267" d="M-57 0l782 1413h131l289 -1413h-129l-84 420h-625l-231 -420h-133zM365 528h548l-147 734zM537 1806h151l191 -247h-125z" />
<glyph unicode="&#xc1;" horiz-adv-x="1267" d="M-57 0l782 1413h131l289 -1413h-129l-84 420h-625l-231 -420h-133zM365 528h548l-147 734zM733 1559l260 247h168l-287 -247h-141z" />
<glyph unicode="&#xc2;" horiz-adv-x="1267" d="M-57 0l782 1413h131l289 -1413h-129l-84 420h-625l-231 -420h-133zM365 528h548l-147 734zM477 1559l311 268h113l215 -268h-123l-158 172l-221 -172h-137z" />
<glyph unicode="&#xc3;" horiz-adv-x="1267" d="M-57 0l782 1413h131l289 -1413h-129l-84 420h-625l-231 -420h-133zM365 528h548l-147 734zM487 1559l2 12q16 96 63.5 151.5t133.5 55.5q47 0 83.5 -18.5t77.5 -55.5q29 -27 53.5 -39t55.5 -12q39 0 55.5 26.5t24.5 77.5l2 12h117l-2 -12q-16 -96 -63.5 -151.5 t-133.5 -55.5q-47 0 -84 19.5t-78 56.5q-29 27 -53.5 38t-54.5 11q-39 0 -55.5 -26.5t-24.5 -77.5l-2 -12h-117z" />
<glyph unicode="&#xc4;" horiz-adv-x="1267" d="M-57 0l782 1413h131l289 -1413h-129l-84 420h-625l-231 -420h-133zM365 528h548l-147 734zM560 1608l26 157h139l-26 -157h-139zM930 1608l27 157h139l-27 -157h-139z" />
<glyph unicode="&#xc5;" horiz-adv-x="1267" d="M-57 0l745 1348q-49 23 -77.5 66.5t-28.5 103.5q0 45 16 87t46 73.5t73 51t98 19.5q92 0 148.5 -51t56.5 -137q0 -72 -39 -131.5t-111 -86.5l275 -1343h-129l-84 420h-625l-231 -420h-133zM365 528h548l-147 734zM672 1522q0 -49 28.5 -81t85.5 -32q66 0 105 41t39 106 q0 49 -29 81t-86 32q-66 0 -104.5 -41t-38.5 -106z" />
<glyph unicode="&#xc6;" horiz-adv-x="1959" d="M-57 0l1095 1413h965l-18 -108h-705l-92 -529h606l-18 -108h-609l-98 -559h725l-18 -109h-850l86 485h-547l-375 -485h-147zM549 594h481l125 711h-55z" />
<glyph unicode="&#xc7;" horiz-adv-x="1280" d="M152 580q0 176 49 332.5t144 275.5t234.5 187.5t319.5 68.5q100 0 195.5 -27.5t171.5 -93.5l-68 -88q-63 51 -141 73.5t-170 22.5q-152 0 -265.5 -61.5t-188.5 -165t-112.5 -240.5t-37.5 -289q0 -111 26.5 -201.5t81.5 -155t140 -100.5t202 -36q88 0 178 28.5t164 79.5 l60 -88q-82 -59 -179.5 -94t-205.5 -39l-43 -90q164 -12 163 -139q0 -88 -66.5 -139.5t-172.5 -51.5q-43 0 -78 7.5t-74 23.5l37 84q27 -10 51.5 -15t59.5 -5q59 0 93 21.5t34 68.5q0 39 -34 54t-89 15h-56l74 170q-113 8 -205 52.5t-156.5 121t-100 185t-35.5 248.5z" />
<glyph unicode="&#xc8;" horiz-adv-x="1132" d="M98 0l248 1413h830l-19 -108h-704l-95 -529h609l-19 -108h-608l-98 -559h725l-19 -109h-850zM506 1806h151l191 -247h-125z" />
<glyph unicode="&#xc9;" horiz-adv-x="1132" d="M98 0l248 1413h830l-19 -108h-704l-95 -529h609l-19 -108h-608l-98 -559h725l-19 -109h-850zM695 1559l260 247h168l-287 -247h-141z" />
<glyph unicode="&#xca;" horiz-adv-x="1132" d="M98 0l248 1413h830l-19 -108h-704l-95 -529h609l-19 -108h-608l-98 -559h725l-19 -109h-850zM461 1559l311 268h113l215 -268h-123l-158 172l-221 -172h-137z" />
<glyph unicode="&#xcb;" horiz-adv-x="1132" d="M98 0l248 1413h830l-19 -108h-704l-95 -529h609l-19 -108h-608l-98 -559h725l-19 -109h-850zM549 1608l26 157h139l-26 -157h-139zM919 1608l27 157h139l-27 -157h-139z" />
<glyph unicode="&#xcc;" horiz-adv-x="501" d="M98 0l248 1413h125l-248 -1413h-125zM156 1806h151l191 -247h-125z" />
<glyph unicode="&#xcd;" horiz-adv-x="501" d="M98 0l248 1413h125l-248 -1413h-125zM359 1559l260 247h168l-287 -247h-141z" />
<glyph unicode="&#xce;" horiz-adv-x="501" d="M98 0l248 1413h125l-248 -1413h-125zM103 1559l311 268h113l215 -268h-123l-158 172l-221 -172h-137z" />
<glyph unicode="&#xcf;" horiz-adv-x="501" d="M98 0l248 1413h125l-248 -1413h-125zM177 1608l26 157h139l-26 -157h-139zM547 1608l27 157h139l-27 -157h-139z" />
<glyph unicode="&#xd0;" horiz-adv-x="1394" d="M72 678l18 106h162l110 629h383q131 0 236.5 -41t179.5 -115.5t113 -180t39 -234.5q0 -195 -49.5 -351.5t-147.5 -265t-245.5 -167t-342.5 -58.5h-413l118 678h-161zM258 109h272q172 0 296 50t203 145t116 231.5t37 306.5q0 104 -30 190t-86 146.5t-138 93.5t-187 33 h-274l-90 -521h340l-19 -106h-340z" />
<glyph unicode="&#xd1;" horiz-adv-x="1386" d="M98 0l248 1413h135l535 -1229l215 1229h125l-248 -1413h-135l-535 1227l-215 -1227h-125zM559 1559l2 12q16 96 63.5 151.5t133.5 55.5q47 0 83.5 -18.5t77.5 -55.5q29 -27 53.5 -39t55.5 -12q39 0 55.5 26.5t24.5 77.5l2 12h117l-2 -12q-16 -96 -63.5 -151.5 t-133.5 -55.5q-47 0 -84 19.5t-78 56.5q-29 27 -53.5 38t-54.5 11q-39 0 -55.5 -26.5t-24.5 -77.5l-2 -12h-117z" />
<glyph unicode="&#xd2;" horiz-adv-x="1513" d="M152 573q0 170 48 328t139 278.5t223 192.5t302 72q135 0 240.5 -43t178.5 -123t111 -191.5t38 -246.5q0 -170 -47.5 -327t-138.5 -277.5t-224 -193.5t-303 -73q-135 0 -240.5 43t-178.5 123t-110.5 191.5t-37.5 246.5zM283 569q0 -225 113.5 -356t336.5 -131 q143 0 250 65.5t177.5 173t105 244.5t34.5 279q0 223 -114.5 355t-335.5 132q-141 0 -247.5 -65.5t-177.5 -172t-106.5 -243.5t-35.5 -281zM627 1806h151l191 -247h-125z" />
<glyph unicode="&#xd3;" horiz-adv-x="1513" d="M152 573q0 170 48 328t139 278.5t223 192.5t302 72q135 0 240.5 -43t178.5 -123t111 -191.5t38 -246.5q0 -170 -47.5 -327t-138.5 -277.5t-224 -193.5t-303 -73q-135 0 -240.5 43t-178.5 123t-110.5 191.5t-37.5 246.5zM283 569q0 -225 113.5 -356t336.5 -131 q143 0 250 65.5t177.5 173t105 244.5t34.5 279q0 223 -114.5 355t-335.5 132q-141 0 -247.5 -65.5t-177.5 -172t-106.5 -243.5t-35.5 -281zM838 1559l260 247h168l-287 -247h-141z" />
<glyph unicode="&#xd4;" horiz-adv-x="1513" d="M152 573q0 170 48 328t139 278.5t223 192.5t302 72q135 0 240.5 -43t178.5 -123t111 -191.5t38 -246.5q0 -170 -47.5 -327t-138.5 -277.5t-224 -193.5t-303 -73q-135 0 -240.5 43t-178.5 123t-110.5 191.5t-37.5 246.5zM283 569q0 -225 113.5 -356t336.5 -131 q143 0 250 65.5t177.5 173t105 244.5t34.5 279q0 223 -114.5 355t-335.5 132q-141 0 -247.5 -65.5t-177.5 -172t-106.5 -243.5t-35.5 -281zM588 1559l311 268h113l215 -268h-123l-158 172l-221 -172h-137z" />
<glyph unicode="&#xd5;" horiz-adv-x="1513" d="M152 573q0 170 48 328t139 278.5t223 192.5t302 72q135 0 240.5 -43t178.5 -123t111 -191.5t38 -246.5q0 -170 -47.5 -327t-138.5 -277.5t-224 -193.5t-303 -73q-135 0 -240.5 43t-178.5 123t-110.5 191.5t-37.5 246.5zM283 569q0 -225 113.5 -356t336.5 -131 q143 0 250 65.5t177.5 173t105 244.5t34.5 279q0 223 -114.5 355t-335.5 132q-141 0 -247.5 -65.5t-177.5 -172t-106.5 -243.5t-35.5 -281zM604 1559l2 12q16 96 63.5 151.5t133.5 55.5q47 0 83.5 -18.5t77.5 -55.5q29 -27 53.5 -39t55.5 -12q39 0 55.5 26.5t24.5 77.5l2 12 h117l-2 -12q-16 -96 -63.5 -151.5t-133.5 -55.5q-47 0 -84 19.5t-78 56.5q-29 27 -53.5 38t-54.5 11q-39 0 -55.5 -26.5t-24.5 -77.5l-2 -12h-117z" />
<glyph unicode="&#xd6;" horiz-adv-x="1513" d="M152 573q0 170 48 328t139 278.5t223 192.5t302 72q135 0 240.5 -43t178.5 -123t111 -191.5t38 -246.5q0 -170 -47.5 -327t-138.5 -277.5t-224 -193.5t-303 -73q-135 0 -240.5 43t-178.5 123t-110.5 191.5t-37.5 246.5zM283 569q0 -225 113.5 -356t336.5 -131 q143 0 250 65.5t177.5 173t105 244.5t34.5 279q0 223 -114.5 355t-335.5 132q-141 0 -247.5 -65.5t-177.5 -172t-106.5 -243.5t-35.5 -281zM678 1608l26 157h139l-26 -157h-139zM1048 1608l27 157h139l-27 -157h-139z" />
<glyph unicode="&#xd7;" d="M178 338l395 352l-264 350l76 66l262 -348l391 348l62 -74l-393 -352l266 -350l-76 -66l-266 350l-391 -350z" />
<glyph unicode="&#xd8;" horiz-adv-x="1513" d="M63 8l185 197q-96 150 -96 368q0 170 48 328t139 278.5t223 192.5t302 72q129 0 230.5 -40t173.5 -112l174 187l78 -74l-185 -197q96 -150 97 -368q0 -170 -47.5 -327t-138.5 -277.5t-224 -193.5t-303 -73q-129 0 -230.5 39t-173.5 111l-174 -185zM283 569 q0 -158 55 -268l846 901q-57 61 -140 95t-194 34q-141 0 -247.5 -65.5t-177.5 -172t-106.5 -243.5t-35.5 -281zM399 211q57 -61 140 -95t194 -34q143 0 250 65.5t177.5 173t105 244.5t34.5 279q0 158 -55 268z" />
<glyph unicode="&#xd9;" horiz-adv-x="1388" d="M178 428q0 82 19 180l141 805h125l-146 -833q-6 -37 -10 -74t-4 -70q0 -178 84 -266t262 -88q111 0 186.5 38t128 104.5t83 157.5t49.5 198l145 833h125l-158 -895q-23 -123 -65.5 -223t-111 -173t-165 -113t-223.5 -40q-223 0 -344 118t-121 341zM586 1806h151l191 -247 h-125z" />
<glyph unicode="&#xda;" horiz-adv-x="1388" d="M178 428q0 82 19 180l141 805h125l-146 -833q-6 -37 -10 -74t-4 -70q0 -178 84 -266t262 -88q111 0 186.5 38t128 104.5t83 157.5t49.5 198l145 833h125l-158 -895q-23 -123 -65.5 -223t-111 -173t-165 -113t-223.5 -40q-223 0 -344 118t-121 341zM752 1559l260 247h168 l-287 -247h-141z" />
<glyph unicode="&#xdb;" horiz-adv-x="1388" d="M178 428q0 82 19 180l141 805h125l-146 -833q-6 -37 -10 -74t-4 -70q0 -178 84 -266t262 -88q111 0 186.5 38t128 104.5t83 157.5t49.5 198l145 833h125l-158 -895q-23 -123 -65.5 -223t-111 -173t-165 -113t-223.5 -40q-223 0 -344 118t-121 341zM518 1559l311 268h113 l215 -268h-123l-158 172l-221 -172h-137z" />
<glyph unicode="&#xdc;" horiz-adv-x="1388" d="M178 428q0 82 19 180l141 805h125l-146 -833q-6 -37 -10 -74t-4 -70q0 -178 84 -266t262 -88q111 0 186.5 38t128 104.5t83 157.5t49.5 198l145 833h125l-158 -895q-23 -123 -65.5 -223t-111 -173t-165 -113t-223.5 -40q-223 0 -344 118t-121 341zM601 1608l26 157h139 l-26 -157h-139zM971 1608l27 157h139l-27 -157h-139z" />
<glyph unicode="&#xdd;" horiz-adv-x="1189" d="M199 1413h125l294 -776l551 776h138l-643 -887l-93 -526h-125l93 528zM666 1559l260 247h168l-287 -247h-141z" />
<glyph unicode="&#xde;" horiz-adv-x="1210" d="M98 0l248 1413h121l-45 -256h299q88 0 165 -23.5t133 -69.5t88 -114.5t32 -158.5q0 -119 -40 -210.5t-112 -152.5t-171 -93t-218 -32h-328l-51 -303h-121zM291 412h303q197 0 308.5 93t111.5 279q0 129 -83 197t-222 68h-306z" />
<glyph unicode="&#xdf;" horiz-adv-x="1181" d="M74 0l188 1065q35 193 150.5 301.5t298.5 108.5q168 0 267 -89.5t99 -248.5q0 -117 -55 -213.5t-166 -145.5q102 -27 159.5 -118t57.5 -207q0 -102 -33.5 -189.5t-96 -152t-148.5 -101.5t-191 -37q-68 0 -132 14.5t-120 43.5l41 94q47 -23 102.5 -34t114.5 -11 q82 0 145.5 29.5t106.5 82t65.5 120t22.5 145.5q0 117 -66.5 191.5t-185.5 74.5h-172l17 98h121q147 0 219.5 88t72.5 232q0 106 -66.5 166.5t-182.5 60.5q-139 0 -221.5 -86t-106.5 -227l-186 -1055h-119z" />
<glyph unicode="&#xe0;" horiz-adv-x="1187" d="M98 387q0 123 33 242t98.5 211t162.5 148t224 56q133 0 220.5 -55t121.5 -162l25 136q4 29 17.5 42t41.5 13h68l-180 -1018h-62q-31 0 -40 15.5t-5 43.5l21 121q-59 -96 -157.5 -151.5t-215.5 -55.5q-90 0 -159.5 31t-117 86t-72 131t-24.5 166zM221 393 q0 -141 68.5 -227t216.5 -86q98 0 174 48t128 126t79.5 175t27.5 196q0 147 -70.5 230t-217.5 83q-104 0 -180 -46t-126.5 -123t-75 -175t-24.5 -201zM426 1516h139l152 -312h-107z" />
<glyph unicode="&#xe1;" horiz-adv-x="1187" d="M98 387q0 123 33 242t98.5 211t162.5 148t224 56q133 0 220.5 -55t121.5 -162l25 136q4 29 17.5 42t41.5 13h68l-180 -1018h-62q-31 0 -40 15.5t-5 43.5l21 121q-59 -96 -157.5 -151.5t-215.5 -55.5q-90 0 -159.5 31t-117 86t-72 131t-24.5 166zM221 393 q0 -141 68.5 -227t216.5 -86q98 0 174 48t128 126t79.5 175t27.5 196q0 147 -70.5 230t-217.5 83q-104 0 -180 -46t-126.5 -123t-75 -175t-24.5 -201zM617 1204l248 312h153l-280 -312h-121z" />
<glyph unicode="&#xe2;" horiz-adv-x="1187" d="M98 387q0 123 33 242t98.5 211t162.5 148t224 56q133 0 220.5 -55t121.5 -162l25 136q4 29 17.5 42t41.5 13h68l-180 -1018h-62q-31 0 -40 15.5t-5 43.5l21 121q-59 -96 -157.5 -151.5t-215.5 -55.5q-90 0 -159.5 31t-117 86t-72 131t-24.5 166zM221 393 q0 -141 68.5 -227t216.5 -86q98 0 174 48t128 126t79.5 175t27.5 196q0 147 -70.5 230t-217.5 83q-104 0 -180 -46t-126.5 -123t-75 -175t-24.5 -201zM394 1204l311 312h112l201 -312h-123l-147 207l-219 -207h-135z" />
<glyph unicode="&#xe3;" horiz-adv-x="1187" d="M98 387q0 123 33 242t98.5 211t162.5 148t224 56q133 0 220.5 -55t121.5 -162l25 136q4 29 17.5 42t41.5 13h68l-180 -1018h-62q-31 0 -40 15.5t-5 43.5l21 121q-59 -96 -157.5 -151.5t-215.5 -55.5q-90 0 -159.5 31t-117 86t-72 131t-24.5 166zM221 393 q0 -141 68.5 -227t216.5 -86q98 0 174 48t128 126t79.5 175t27.5 196q0 147 -70.5 230t-217.5 83q-104 0 -180 -46t-126.5 -123t-75 -175t-24.5 -201zM379 1227l2 12q16 96 63 151.5t133 55.5q47 0 83 -18.5t77 -55.5q29 -27 54.5 -41t56.5 -14q41 0 58 28.5t26 79.5l2 13 h112l-2 -13q-16 -96 -63 -151t-133 -55q-47 0 -83 19t-77 56q-29 27 -54.5 40.5t-56.5 13.5q-41 0 -58.5 -29t-25.5 -80l-2 -12h-112z" />
<glyph unicode="&#xe4;" horiz-adv-x="1187" d="M98 387q0 123 33 242t98.5 211t162.5 148t224 56q133 0 220.5 -55t121.5 -162l25 136q4 29 17.5 42t41.5 13h68l-180 -1018h-62q-31 0 -40 15.5t-5 43.5l21 121q-59 -96 -157.5 -151.5t-215.5 -55.5q-90 0 -159.5 31t-117 86t-72 131t-24.5 166zM221 393 q0 -141 68.5 -227t216.5 -86q98 0 174 48t128 126t79.5 175t27.5 196q0 147 -70.5 230t-217.5 83q-104 0 -180 -46t-126.5 -123t-75 -175t-24.5 -201zM453 1245l27 156h137l-27 -156h-137zM826 1245l26 156h138l-27 -156h-137z" />
<glyph unicode="&#xe5;" horiz-adv-x="1187" d="M98 387q0 123 33 242t98.5 211t162.5 148t224 56q133 0 220.5 -55t121.5 -162l25 136q4 29 17.5 42t41.5 13h68l-180 -1018h-62q-31 0 -40 15.5t-5 43.5l21 121q-59 -96 -157.5 -151.5t-215.5 -55.5q-90 0 -159.5 31t-117 86t-72 131t-24.5 166zM221 393 q0 -141 68.5 -227t216.5 -86q98 0 174 48t128 126t79.5 175t27.5 196q0 147 -70.5 230t-217.5 83q-104 0 -180 -46t-126.5 -123t-75 -175t-24.5 -201zM520 1360q0 45 16.5 87t46.5 73.5t73 51t98 19.5q92 0 148.5 -51t56.5 -137q0 -45 -16.5 -87t-46 -74t-73 -51.5 t-98.5 -19.5q-92 0 -148.5 51.5t-56.5 137.5zM611 1364q0 -49 28.5 -81t85.5 -32q66 0 105 41t39 107q0 49 -29 80.5t-86 31.5q-66 0 -104.5 -40.5t-38.5 -106.5z" />
<glyph unicode="&#xe6;" horiz-adv-x="1687" d="M51 252q0 94 34 159.5t93.5 105.5t140 58.5t177.5 18.5h266l8 47q4 20 6 40.5t2 39.5q0 113 -67.5 166t-184.5 53q-84 0 -159.5 -25.5t-141.5 -66.5l-47 80q78 53 174.5 84.5t186.5 31.5q127 0 213 -53t118 -160q66 98 164.5 155.5t220.5 57.5q84 0 149.5 -26.5 t110 -73.5t68 -112.5t23.5 -145.5q0 -51 -7.5 -97t-21.5 -93h-713q-2 -20 -3 -39t-1 -33q0 -164 86 -254t248 -90q143 0 266 86l49 -82q-147 -111 -333 -111q-154 0 -256.5 71t-143.5 200q-61 -123 -158.5 -193.5t-242.5 -70.5q-68 0 -127.5 16t-102.5 50t-68.5 85 t-25.5 121zM168 258q0 -88 60.5 -132t158.5 -44q70 0 127 23.5t100 66.5t72 100.5t41 124.5l18 103h-258q-72 0 -130 -11.5t-100 -39t-65.5 -74.5t-23.5 -117zM879 592h600q12 51 12 104q0 113 -62.5 178.5t-179.5 65.5q-74 0 -134 -26.5t-107 -73.5t-80 -110.5t-49 -137.5z " />
<glyph unicode="&#xe7;" horiz-adv-x="966" d="M102 408q0 131 39 246.5t112 202.5t177.5 137t233.5 50q80 0 146.5 -22.5t125.5 -71.5l-57 -82q-47 37 -105.5 53.5t-118.5 16.5q-104 0 -184 -43t-134 -114.5t-83 -166t-29 -198.5q0 -162 85 -249t247 -87q66 0 122 18.5t109 53.5l50 -82q-115 -84 -265 -95l-45 -96 q164 -16 164 -139q0 -88 -66.5 -139.5t-172.5 -51.5q-43 0 -78 7.5t-74 23.5l35 80q27 -10 52.5 -15t60.5 -5q63 0 98 22.5t35 71.5q0 41 -35 57t-94 16h-54l74 170q-82 6 -150.5 39t-117.5 88.5t-76 131t-27 172.5z" />
<glyph unicode="&#xe8;" horiz-adv-x="1060" d="M102 416q0 123 35 235.5t101.5 200.5t164 140t222.5 52q86 0 151.5 -26.5t110.5 -73.5t68.5 -112.5t23.5 -145.5q0 -51 -7 -97t-22 -93h-727q-2 -18 -2 -37v-35q0 -164 88 -254t252 -90q145 0 273 86l49 -82q-76 -57 -162 -84t-178 -27q-207 0 -324 119t-117 324z M240 592h612q12 51 12 104q0 115 -64.5 179.5t-181.5 64.5q-76 0 -138 -26.5t-109 -73.5t-81 -110.5t-50 -137.5zM395 1516h139l152 -312h-107z" />
<glyph unicode="&#xe9;" horiz-adv-x="1060" d="M102 416q0 123 35 235.5t101.5 200.5t164 140t222.5 52q86 0 151.5 -26.5t110.5 -73.5t68.5 -112.5t23.5 -145.5q0 -51 -7 -97t-22 -93h-727q-2 -18 -2 -37v-35q0 -164 88 -254t252 -90q145 0 273 86l49 -82q-76 -57 -162 -84t-178 -27q-207 0 -324 119t-117 324z M240 592h612q12 51 12 104q0 115 -64.5 179.5t-181.5 64.5q-76 0 -138 -26.5t-109 -73.5t-81 -110.5t-50 -137.5zM594 1204l248 312h153l-280 -312h-121z" />
<glyph unicode="&#xea;" horiz-adv-x="1060" d="M102 416q0 123 35 235.5t101.5 200.5t164 140t222.5 52q86 0 151.5 -26.5t110.5 -73.5t68.5 -112.5t23.5 -145.5q0 -51 -7 -97t-22 -93h-727q-2 -18 -2 -37v-35q0 -164 88 -254t252 -90q145 0 273 86l49 -82q-76 -57 -162 -84t-178 -27q-207 0 -324 119t-117 324z M240 592h612q12 51 12 104q0 115 -64.5 179.5t-181.5 64.5q-76 0 -138 -26.5t-109 -73.5t-81 -110.5t-50 -137.5zM334 1204l311 312h112l201 -312h-123l-147 207l-219 -207h-135z" />
<glyph unicode="&#xeb;" horiz-adv-x="1060" d="M102 416q0 123 35 235.5t101.5 200.5t164 140t222.5 52q86 0 151.5 -26.5t110.5 -73.5t68.5 -112.5t23.5 -145.5q0 -51 -7 -97t-22 -93h-727q-2 -18 -2 -37v-35q0 -164 88 -254t252 -90q145 0 273 86l49 -82q-76 -57 -162 -84t-178 -27q-207 0 -324 119t-117 324z M240 592h612q12 51 12 104q0 115 -64.5 179.5t-181.5 64.5q-76 0 -138 -26.5t-109 -73.5t-81 -110.5t-50 -137.5zM408 1245l27 156h137l-27 -156h-137zM781 1245l26 156h138l-27 -156h-137z" />
<glyph unicode="&#xec;" horiz-adv-x="454" d="M78 0l180 1018h119l-180 -1018h-119zM113 1516h139l152 -312h-107z" />
<glyph unicode="&#xed;" horiz-adv-x="454" d="M78 0l180 1018h119l-180 -1018h-119zM277 1204l248 312h153l-280 -312h-121z" />
<glyph unicode="&#xee;" horiz-adv-x="454" d="M27 1204l311 312h112l201 -312h-123l-147 207l-219 -207h-135zM78 0l180 1018h119l-180 -1018h-119z" />
<glyph unicode="&#xef;" horiz-adv-x="454" d="M78 0l180 1018h119l-180 -1018h-119zM90 1245l27 156h137l-27 -156h-137zM463 1245l26 156h138l-27 -156h-137z" />
<glyph unicode="&#xf0;" horiz-adv-x="1128" d="M96 393q0 115 34 220.5t99.5 185.5t160.5 127t218 47q127 0 215 -65.5t123 -182.5q-16 176 -81.5 297t-188.5 209l-242 -182l-53 69l217 164q-43 25 -93 48.5t-106 45.5l43 103q139 -55 248 -127l232 174l53 -70l-211 -160q274 -215 274 -589q0 -131 -29.5 -262.5 t-92 -236t-162 -170t-238.5 -65.5q-193 0 -306.5 110t-113.5 310zM219 389q0 -141 79 -225t220 -84q92 0 163 38t120 101.5t74.5 148.5t25.5 179q0 70 -19.5 128t-57.5 101t-93 66.5t-129 23.5q-94 0 -165.5 -40t-120 -106.5t-73 -152.5t-24.5 -178z" />
<glyph unicode="&#xf1;" horiz-adv-x="1159" d="M78 0l178 1018h59q57 0 47 -57l-22 -130q55 92 150.5 152.5t214.5 60.5q150 0 235.5 -82.5t85.5 -230.5q0 -31 -3 -57.5t-7 -50.5l-109 -623h-119l107 608q4 29 7 55.5t3 53.5q0 221 -221 221q-84 0 -151.5 -38t-117.5 -99.5t-83 -139t-47 -157.5l-88 -504h-119z M377 1227l2 12q16 96 63 151.5t133 55.5q47 0 83 -18.5t77 -55.5q29 -27 54.5 -41t56.5 -14q41 0 58 28.5t26 79.5l2 13h112l-2 -13q-16 -96 -63 -151t-133 -55q-47 0 -83 19t-77 56q-29 27 -54.5 40.5t-56.5 13.5q-41 0 -58.5 -29t-25.5 -80l-2 -12h-112z" />
<glyph unicode="&#xf2;" horiz-adv-x="1161" d="M102 416q0 123 36 236.5t104.5 200.5t167 139t223.5 52q100 0 179 -31.5t134 -90t84 -140.5t29 -180q0 -123 -36 -236.5t-104.5 -200.5t-167 -139.5t-223.5 -52.5q-100 0 -179 32t-134 90.5t-84 140t-29 180.5zM225 412q0 -74 20.5 -134.5t59.5 -105.5t96.5 -69.5 t130.5 -24.5q100 0 176 45t126.5 118.5t76 169t25.5 195.5q0 74 -20.5 134.5t-59.5 105.5t-96 69.5t-131 24.5q-100 0 -176 -45t-126.5 -119t-76 -169t-25.5 -195zM438 1516h139l152 -312h-107z" />
<glyph unicode="&#xf3;" horiz-adv-x="1161" d="M102 416q0 123 36 236.5t104.5 200.5t167 139t223.5 52q100 0 179 -31.5t134 -90t84 -140.5t29 -180q0 -123 -36 -236.5t-104.5 -200.5t-167 -139.5t-223.5 -52.5q-100 0 -179 32t-134 90.5t-84 140t-29 180.5zM225 412q0 -74 20.5 -134.5t59.5 -105.5t96.5 -69.5 t130.5 -24.5q100 0 176 45t126.5 118.5t76 169t25.5 195.5q0 74 -20.5 134.5t-59.5 105.5t-96 69.5t-131 24.5q-100 0 -176 -45t-126.5 -119t-76 -169t-25.5 -195zM623 1204l248 312h153l-280 -312h-121z" />
<glyph unicode="&#xf4;" horiz-adv-x="1161" d="M102 416q0 123 36 236.5t104.5 200.5t167 139t223.5 52q100 0 179 -31.5t134 -90t84 -140.5t29 -180q0 -123 -36 -236.5t-104.5 -200.5t-167 -139.5t-223.5 -52.5q-100 0 -179 32t-134 90.5t-84 140t-29 180.5zM225 412q0 -74 20.5 -134.5t59.5 -105.5t96.5 -69.5 t130.5 -24.5q100 0 176 45t126.5 118.5t76 169t25.5 195.5q0 74 -20.5 134.5t-59.5 105.5t-96 69.5t-131 24.5q-100 0 -176 -45t-126.5 -119t-76 -169t-25.5 -195zM385 1204l311 312h112l201 -312h-123l-147 207l-219 -207h-135z" />
<glyph unicode="&#xf5;" horiz-adv-x="1161" d="M102 416q0 123 36 236.5t104.5 200.5t167 139t223.5 52q100 0 179 -31.5t134 -90t84 -140.5t29 -180q0 -123 -36 -236.5t-104.5 -200.5t-167 -139.5t-223.5 -52.5q-100 0 -179 32t-134 90.5t-84 140t-29 180.5zM225 412q0 -74 20.5 -134.5t59.5 -105.5t96.5 -69.5 t130.5 -24.5q100 0 176 45t126.5 118.5t76 169t25.5 195.5q0 74 -20.5 134.5t-59.5 105.5t-96 69.5t-131 24.5q-100 0 -176 -45t-126.5 -119t-76 -169t-25.5 -195zM373 1227l2 12q16 96 63 151.5t133 55.5q47 0 83 -18.5t77 -55.5q29 -27 54.5 -41t56.5 -14q41 0 58 28.5 t26 79.5l2 13h112l-2 -13q-16 -96 -63 -151t-133 -55q-47 0 -83 19t-77 56q-29 27 -54.5 40.5t-56.5 13.5q-41 0 -58.5 -29t-25.5 -80l-2 -12h-112z" />
<glyph unicode="&#xf6;" horiz-adv-x="1161" d="M102 416q0 123 36 236.5t104.5 200.5t167 139t223.5 52q100 0 179 -31.5t134 -90t84 -140.5t29 -180q0 -123 -36 -236.5t-104.5 -200.5t-167 -139.5t-223.5 -52.5q-100 0 -179 32t-134 90.5t-84 140t-29 180.5zM225 412q0 -74 20.5 -134.5t59.5 -105.5t96.5 -69.5 t130.5 -24.5q100 0 176 45t126.5 118.5t76 169t25.5 195.5q0 74 -20.5 134.5t-59.5 105.5t-96 69.5t-131 24.5q-100 0 -176 -45t-126.5 -119t-76 -169t-25.5 -195zM436 1245l27 156h137l-27 -156h-137zM809 1245l26 156h138l-27 -156h-137z" />
<glyph unicode="&#xf7;" d="M193 635l18 102h874l-18 -102h-874zM490 269l30 170h150l-31 -170h-149zM609 934l30 170h150l-31 -170h-149z" />
<glyph unicode="&#xf8;" horiz-adv-x="1161" d="M49 18l123 132q-70 111 -70 266q0 123 36 236.5t104.5 200.5t167 139t223.5 52q90 0 163.5 -26.5t127.5 -73.5l116 125l72 -70l-125 -131q72 -109 72 -266q0 -123 -36 -236.5t-104.5 -200.5t-167 -139.5t-223.5 -52.5q-92 0 -164.5 27t-125.5 74l-117 -125zM225 412 q0 -94 35 -170l584 618q-39 37 -93 58.5t-122 21.5q-100 0 -176 -45t-126.5 -119t-76 -169t-25.5 -195zM317 158q80 -80 215 -80q100 0 176 45t126.5 118.5t76 169t25.5 195.5q0 94 -35 170z" />
<glyph unicode="&#xf9;" horiz-adv-x="1130" d="M133 293q0 29 2 60.5t8 66.5l105 598h119l-103 -592q-12 -72 -12 -119q0 -227 223 -227q82 0 145.5 39t108.5 101.5t73.5 138t41.5 149.5l88 510h119l-179 -1018h-61q-31 0 -40 15.5t-5 43.5l18 111q-53 -86 -138 -141.5t-191 -55.5q-154 0 -238 82t-84 238zM432 1516 h139l152 -312h-107z" />
<glyph unicode="&#xfa;" horiz-adv-x="1130" d="M133 293q0 29 2 60.5t8 66.5l105 598h119l-103 -592q-12 -72 -12 -119q0 -227 223 -227q82 0 145.5 39t108.5 101.5t73.5 138t41.5 149.5l88 510h119l-179 -1018h-61q-31 0 -40 15.5t-5 43.5l18 111q-53 -86 -138 -141.5t-191 -55.5q-154 0 -238 82t-84 238zM590 1204 l248 312h153l-280 -312h-121z" />
<glyph unicode="&#xfb;" horiz-adv-x="1130" d="M133 293q0 29 2 60.5t8 66.5l105 598h119l-103 -592q-12 -72 -12 -119q0 -227 223 -227q82 0 145.5 39t108.5 101.5t73.5 138t41.5 149.5l88 510h119l-179 -1018h-61q-31 0 -40 15.5t-5 43.5l18 111q-53 -86 -138 -141.5t-191 -55.5q-154 0 -238 82t-84 238zM353 1204 l311 312h112l201 -312h-123l-147 207l-219 -207h-135z" />
<glyph unicode="&#xfc;" horiz-adv-x="1130" d="M133 293q0 29 2 60.5t8 66.5l105 598h119l-103 -592q-12 -72 -12 -119q0 -227 223 -227q82 0 145.5 39t108.5 101.5t73.5 138t41.5 149.5l88 510h119l-179 -1018h-61q-31 0 -40 15.5t-5 43.5l18 111q-53 -86 -138 -141.5t-191 -55.5q-154 0 -238 82t-84 238zM416 1245 l27 156h137l-27 -156h-137zM789 1245l26 156h138l-27 -156h-137z" />
<glyph unicode="&#xfd;" horiz-adv-x="991" d="M-37 -436l17 94h53q43 0 72.5 10t52 31.5t43 54.5t45.5 76l100 172l-229 1016h125l184 -887l494 887h131l-680 -1182q-43 -76 -78 -129t-71 -87t-80 -49t-105 -15q-47 0 -74 8zM533 1204l248 312h153l-280 -312h-121z" />
<glyph unicode="&#xfe;" horiz-adv-x="1193" d="M2 -430l336 1898h119l-111 -628q55 92 155.5 148t217.5 56q90 0 159.5 -30.5t117.5 -86t73 -131t25 -165.5q0 -127 -34 -245t-100.5 -210t-164 -147.5t-222.5 -55.5q-137 0 -223 55.5t-121 155.5l-108 -614h-119zM272 393q0 -150 73 -231.5t218 -81.5q104 0 180 46 t127.5 123t76 175t24.5 201q0 145 -72 229t-215 84q-96 0 -173 -48t-130 -126t-81 -175t-28 -196z" />
<glyph unicode="&#xff;" horiz-adv-x="991" d="M-37 -436l17 94h53q43 0 72.5 10t52 31.5t43 54.5t45.5 76l100 172l-229 1016h125l184 -887l494 887h131l-680 -1182q-43 -76 -78 -129t-71 -87t-80 -49t-105 -15q-47 0 -74 8zM330 1245l27 156h137l-27 -156h-137zM703 1245l26 156h138l-27 -156h-137z" />
<glyph unicode="&#x152;" horiz-adv-x="2099" d="M152 573q0 172 45 329t132 277.5t213 192.5t287 72q180 0 300 -92t174 -254l55 315h784l-18 -108h-666l-92 -529h567l-18 -108h-567l-99 -559h684l-18 -109h-805l37 207q-82 -109 -194.5 -173.5t-260.5 -64.5q-129 0 -230.5 43t-170 122t-104 190.5t-35.5 248.5zM283 569 q0 -225 107.5 -356t316.5 -131q135 0 234 65.5t166 173t99.5 244.5t32.5 279q0 225 -109.5 356t-314.5 131q-133 0 -233.5 -65.5t-167 -172t-99 -243.5t-32.5 -281z" />
<glyph unicode="&#x153;" horiz-adv-x="1853" d="M102 416q0 125 36 238.5t103.5 200.5t165 138t220.5 51q141 0 237.5 -70.5t136.5 -197.5q63 119 169 193.5t251 74.5q84 0 149.5 -26.5t109.5 -73.5t68 -112.5t24 -145.5q0 -51 -7.5 -97t-21.5 -93h-713q-2 -18 -3 -37t-1 -35q0 -164 86 -254t248 -90q143 0 266 86 l49 -82q-147 -111 -334 -111q-147 0 -251.5 69t-145.5 196q-63 -119 -170 -192t-250 -73q-100 0 -178 32t-132 90.5t-83 139t-29 181.5zM225 412q0 -147 79 -240.5t226 -93.5q98 0 172 45t124.5 118.5t75 169t24.5 195.5q0 150 -80 242t-225 92q-98 0 -172 -45t-124.5 -119 t-75 -169t-24.5 -195zM1044 592h601q12 51 12 104q0 113 -62.5 178.5t-179.5 65.5q-74 0 -134 -26.5t-107.5 -73.5t-80 -110.5t-49.5 -137.5z" />
<glyph unicode="&#x178;" horiz-adv-x="1189" d="M199 1413h125l294 -776l551 776h138l-643 -887l-93 -526h-125l93 528zM496 1608l26 157h139l-26 -157h-139zM866 1608l27 157h139l-27 -157h-139z" />
<glyph unicode="&#x2c6;" horiz-adv-x="1024" d="M322 1204l311 312h112l201 -312h-123l-147 207l-219 -207h-135z" />
<glyph unicode="&#x2dc;" horiz-adv-x="1024" d="M324 1227l2 12q16 96 63 151.5t133 55.5q47 0 83 -18.5t77 -55.5q29 -27 54.5 -41t56.5 -14q41 0 58 28.5t26 79.5l2 13h112l-2 -13q-16 -96 -63 -151t-133 -55q-47 0 -83 19t-77 56q-29 27 -54.5 40.5t-56.5 13.5q-41 0 -58.5 -29t-25.5 -80l-2 -12h-112z" />
<glyph unicode="&#x2000;" horiz-adv-x="913" />
<glyph unicode="&#x2001;" horiz-adv-x="1827" />
<glyph unicode="&#x2002;" horiz-adv-x="913" />
<glyph unicode="&#x2003;" horiz-adv-x="1827" />
<glyph unicode="&#x2004;" horiz-adv-x="609" />
<glyph unicode="&#x2005;" horiz-adv-x="456" />
<glyph unicode="&#x2006;" horiz-adv-x="304" />
<glyph unicode="&#x2007;" horiz-adv-x="304" />
<glyph unicode="&#x2008;" horiz-adv-x="228" />
<glyph unicode="&#x2009;" horiz-adv-x="365" />
<glyph unicode="&#x200a;" horiz-adv-x="101" />
<glyph unicode="&#x2010;" horiz-adv-x="780" d="M98 487l19 107h575l-18 -107h-576z" />
<glyph unicode="&#x2011;" horiz-adv-x="780" d="M98 487l19 107h575l-18 -107h-576z" />
<glyph unicode="&#x2012;" horiz-adv-x="780" d="M98 487l19 107h575l-18 -107h-576z" />
<glyph unicode="&#x2013;" horiz-adv-x="1024" d="M-4 489l18 103h1024l-18 -103h-1024z" />
<glyph unicode="&#x2014;" horiz-adv-x="2048" d="M-4 489l18 103h2048l-18 -103h-2048z" />
<glyph unicode="&#x2018;" horiz-adv-x="407" d="M205 981l18 106q10 55 21.5 102.5t28 90.5t39 83t55.5 83l65 -51q-45 -59 -66.5 -109.5t-37.5 -118.5h71l-32 -186h-162z" />
<glyph unicode="&#x2019;" horiz-adv-x="407" d="M215 999q45 57 66.5 108.5t37.5 119.5h-71l33 186h161l-18 -106q-10 -55 -21.5 -102.5t-28 -90.5t-39 -83t-54.5 -83z" />
<glyph unicode="&#x201a;" horiz-adv-x="407" d="M2 -226q45 57 66.5 108.5t37.5 119.5h-71l33 186h161l-18 -106q-10 -55 -21.5 -102.5t-28 -90.5t-39 -83t-54.5 -83z" />
<glyph unicode="&#x201c;" horiz-adv-x="708" d="M205 981l18 106q10 55 21.5 102.5t28 90.5t39 83t55.5 83l65 -51q-45 -59 -66.5 -109.5t-37.5 -118.5h71l-32 -186h-162zM506 981l18 106q10 55 21.5 102.5t28 90.5t39 83t55.5 83l65 -51q-45 -59 -66.5 -109.5t-37.5 -118.5h71l-32 -186h-162z" />
<glyph unicode="&#x201d;" horiz-adv-x="708" d="M215 999q45 57 66.5 108.5t37.5 119.5h-71l33 186h161l-18 -106q-10 -55 -21.5 -102.5t-28 -90.5t-39 -83t-54.5 -83zM516 999q45 57 66.5 108.5t37.5 119.5h-71l33 186h161l-18 -106q-10 -55 -21.5 -102.5t-28 -90.5t-39 -83t-54.5 -83z" />
<glyph unicode="&#x201e;" horiz-adv-x="708" d="M2 -226q45 57 66.5 108.5t37.5 119.5h-71l33 186h161l-18 -106q-10 -55 -21.5 -102.5t-28 -90.5t-39 -83t-54.5 -83zM301 -226q45 57 66.5 108.5t37.5 119.5h-71l33 186h161l-18 -106q-10 -55 -21.5 -102.5t-28 -90.5t-39 -83t-54.5 -83z" />
<glyph unicode="&#x2022;" horiz-adv-x="675" d="M106 539q0 49 18.5 92t51.5 75.5t76 51t92 18.5t91 -19.5t75 -51t51.5 -74.5t18.5 -92t-18.5 -92.5t-51.5 -76t-75 -51t-91 -18.5t-93 18.5t-76 51t-50.5 76t-18.5 92.5z" />
<glyph unicode="&#x2026;" horiz-adv-x="1292" d="M33 0l33 186h157l-33 -186h-157zM477 0l33 186h157l-33 -186h-157zM922 0l33 186h157l-33 -186h-157z" />
<glyph unicode="&#x202f;" horiz-adv-x="365" />
<glyph unicode="&#x2039;" horiz-adv-x="593" d="M106 539l332 436h119l-328 -447l174 -424h-108z" />
<glyph unicode="&#x203a;" horiz-adv-x="593" d="M47 104l328 445l-174 426h108l189 -436l-332 -435h-119z" />
<glyph unicode="&#x205f;" horiz-adv-x="456" />
<glyph unicode="&#x20ac;" d="M76 471l41 102h127q4 59 10 118t20 116h-139l41 102h127q35 106 90.5 198.5t132 160t174 106.5t215.5 39q180 0 306 -100l-60 -86q-106 74 -256 73q-92 0 -166.5 -30.5t-134 -82.5t-103.5 -124t-75 -154h537l-41 -102h-527q-27 -113 -30 -234h487l-41 -102h-444 q14 -172 107 -278.5t276 -106.5q76 0 145.5 22.5t130.5 61.5l53 -88q-63 -47 -156.5 -78t-187.5 -31q-115 0 -203 36t-149 102.5t-96 157.5t-41 202h-170z" />
<glyph unicode="&#x2122;" horiz-adv-x="1183" d="M178 1348v65h420v-65h-172v-418h-76v418h-172zM678 930v483h86l156 -297l153 297h86v-483h-74v379l-135 -260h-67l-131 251v-370h-74z" />
<glyph unicode="&#x25fc;" horiz-adv-x="1013" d="M0 0v1014h1014v-1014h-1014z" />
<glyph unicode="&#xfb01;" horiz-adv-x="1095" d="M127 920l16 98h181l22 129q29 168 115 248t252 80q23 0 46 -3.5t40 -7.5l-17 -94h-49q-68 0 -114 -11t-76.5 -39t-49 -72t-30.5 -111l-21 -119h576l-180 -1018h-119l162 920h-455l-162 -920h-119l162 920h-180zM932 1260l29 157h139l-29 -157h-139z" />
<glyph unicode="&#xfb02;" horiz-adv-x="1187" d="M127 920l16 98h181l22 129q29 168 115 248t252 80q23 0 46 -3.5t40 -7.5l-17 -94h-49q-68 0 -114 -11t-76.5 -39t-49 -72t-30.5 -111l-21 -119h279l-16 -98h-279l-162 -920h-119l162 920h-180zM750 168q0 16 2 36.5t6 43.5l215 1220h119l-218 -1230q-6 -35 -6 -62 q0 -49 31 -66.5t92 -17.5h33l-16 -96q-23 -6 -54 -6q-100 0 -152 41t-52 137z" />
<glyph unicode="&#xfb03;" horiz-adv-x="1669" d="M127 920l16 98h181l22 129q29 168 115 248t252 80q23 0 46 -3.5t40 -7.5l-17 -94h-49q-68 0 -114 -11t-76.5 -39t-49 -72t-30.5 -111l-21 -119h455l23 129q29 168 114.5 248t251.5 80q23 0 46.5 -3.5t39.5 -7.5l-16 -94h-49q-68 0 -114 -11t-77 -39t-49 -72t-31 -111 l-20 -119h579l-184 -1018h-119l162 920h-455l-161 -920h-119l162 920h-455l-162 -920h-119l162 920h-180zM1505 1260l29 157h139l-28 -157h-140z" />
<glyph unicode="&#xfb04;" horiz-adv-x="1765" d="M127 920l16 98h181l22 129q29 168 115 248t252 80q23 0 46 -3.5t40 -7.5l-17 -94h-49q-68 0 -114 -11t-76.5 -39t-49 -72t-30.5 -111l-21 -119h455l23 129q29 168 114.5 248t251.5 80q23 0 46.5 -3.5t39.5 -7.5l-16 -94h-49q-68 0 -114 -11t-77 -39t-49 -72t-31 -111 l-20 -119h278l-16 -98h-279l-161 -920h-119l162 920h-455l-162 -920h-119l162 920h-180zM1328 168q0 16 2 36.5t6 43.5l215 1220h119l-218 -1230q-6 -35 -6 -62q0 -49 31 -66.5t92 -17.5h33l-16 -96q-23 -6 -54 -6q-100 0 -152 41t-52 137z" />
</font>
</defs>
</svg>
